<svg xmlns="http://www.w3.org/2000/svg" viewBox="0 0 239.91 139.79"><defs><style>.cls-1{fill:#fff;}</style></defs><g id="Capa_2" data-name="Capa 2"><g id="Capa_1-2" data-name="Capa 1"><path class="cls-1" d="M239.91,61.17a2.46,2.46,0,1,1-2.44-2.39A2.41,2.41,0,0,1,239.91,61.17Zm-4.3,0a1.86,1.86,0,0,0,1.86,1.91,1.84,1.84,0,0,0,1.83-1.9,1.85,1.85,0,1,0-3.69,0Zm1.47,1.24h-.55V60a6.13,6.13,0,0,1,.92-.08,1.3,1.3,0,0,1,.81.19.59.59,0,0,1,.25.51.61.61,0,0,1-.5.57v0c.24.07.35.26.43.58a2.3,2.3,0,0,0,.17.59H238a1.89,1.89,0,0,1-.19-.59c0-.24-.19-.36-.5-.36h-.26Zm0-1.34h.27c.3,0,.55-.11.55-.35s-.16-.37-.51-.37a1.77,1.77,0,0,0-.31,0Z"/><path class="cls-1" d="M219.69,125.28l0,.2-.28,1.73c-92.2-15.55-170.16-6.76-209.46.17l-.3-1.9C49.08,118.53,127.3,109.71,219.69,125.28Z"/><path class="cls-1" d="M11.12,116.34,4.85,77,11,76l5.38,33.72,10.17-1.62.9,5.62Z"/><path class="cls-1" d="M25.76,83.28C25,77,27.88,72.93,34,72.19s9.88,2.47,10.65,8.8l2.53,20.79c.77,6.33-2.12,10.35-8.22,11.09s-9.88-2.46-10.65-8.79Zm12.61-1.93q-.48-3.9-3.7-3.51c-2.15.26-3.06,1.69-2.75,4.29l2.63,21.59c.32,2.6,1.55,3.76,3.7,3.5s3.06-1.69,2.74-4.29Z"/><path class="cls-1" d="M50.29,101.46l-.2-2.27,5.9-.5.23,2.72c.22,2.55,1.41,3.76,3.57,3.58s3.18-1.59,3-4.26a7.83,7.83,0,0,0-1.56-4.2,20.94,20.94,0,0,0-4.65-4.23,26.7,26.7,0,0,1-6-5.72,12.64,12.64,0,0,1-2.06-6.1c-.54-6.3,2.38-10.15,8.45-10.67s9.38,2.79,9.93,9.2L67,80.66l-5.9.5-.17-2c-.23-2.61-1.36-3.82-3.46-3.64S54.41,77,54.63,79.55a7.18,7.18,0,0,0,1.54,3.87,24.4,24.4,0,0,0,4.7,4.16,23.1,23.1,0,0,1,5.92,5.78,13.38,13.38,0,0,1,2.09,6.39c.56,6.52-2.42,10.38-8.55,10.9S50.84,107.87,50.29,101.46Z"/><path class="cls-1" d="M86.22,108.39,78.68,68.8,85,68.56l5.33,31.13,3-31.45L99.05,68l-4.53,40Z"/><path class="cls-1" d="M103.25,107.82,103,68l17.08-.09,0,5.69-10.82.06.06,10.53,8.6,0,0,5.69-8.6,0,.07,12.24L120.3,102l0,5.69Z"/><path class="cls-1" d="M123.77,77.15c.17-6.2,3.51-9.7,9.48-9.54s9.12,3.83,9,10l-.12,4.21-5.91-.16.12-4.6c.07-2.45-.92-3.73-3-3.79s-3.16,1.17-3.23,3.62l-.59,22.25c-.07,2.44.92,3.66,3,3.72s3.16-1.11,3.22-3.56l.16-5.8,5.92.16L141.63,99c-.16,6.2-3.5,9.7-9.48,9.54s-9.12-3.84-9-10Z"/><path class="cls-1" d="M144.83,108.47l2.07-39.8,6.25.33-2.07,39.8Z"/><path class="cls-1" d="M155.48,109l3.16-39.72,7.71.61,4.42,24.28,1.88-23.78,5.56.44-3.15,39.73-6.3-.5-5.41-29.61-2.3,29Z"/><path class="cls-1" d="M182.43,80.73c.74-6.33,4.49-9.56,10.6-8.85s9,4.72,8.29,11.06l-2.43,20.81c-.74,6.33-4.5,9.56-10.6,8.85s-9-4.72-8.29-11.06Zm12.71,1.08q.45-3.9-2.77-4.27c-2.15-.25-3.37.92-3.68,3.52l-2.51,21.6c-.31,2.61.62,4,2.77,4.28s3.37-.92,3.67-3.52Z"/><path class="cls-1" d="M202,104.17l.34-2.25,5.86.89-.41,2.7c-.39,2.53.48,4,2.62,4.31s3.46-.8,3.86-3.44a7.84,7.84,0,0,0-.53-4.46,21.05,21.05,0,0,0-3.52-5.2,26.4,26.4,0,0,1-4.47-7,12.77,12.77,0,0,1-.58-6.42c.95-6.25,4.7-9.31,10.72-8.39s8.46,4.91,7.49,11.27l-.24,1.63L217.26,87l.31-2c.4-2.59-.42-4-2.5-4.36s-3.34.76-3.73,3.29a7.21,7.21,0,0,0,.58,4.12,25.05,25.05,0,0,0,3.6,5.16,22.88,22.88,0,0,1,4.4,7,13.48,13.48,0,0,1,.54,6.7c-1,6.47-4.79,9.52-10.87,8.6S201,110.53,202,104.17Z"/><path class="cls-1" d="M229.36,66.51l-.06.28-.28,1.7a607.25,607.25,0,0,0-60.36-8.09l-3.07-.26c-1.92-.16-3.85-.3-5.75-.41a642.12,642.12,0,0,0-95.29.39c-1.26.08-2.49.19-3.72.28-1,.11-2.06.19-3.07.27A559.56,559.56,0,0,0,.31,68.74L0,66.79a553.7,553.7,0,0,1,58.07-8.1c1-.11,2.07-.19,3.13-.28,8.42-.72,17.41-1.31,26.93-1.67l.33,0c14.93-.61,31.12-.75,48.28-.19a.72.72,0,0,1,.19,0q13.74.42,28.27,1.57l3.13.25C187.8,60,208.23,62.6,229.36,66.51Z"/><path class="cls-1" d="M60.94,139.15l-2.27-2.56q-.33.07-.69.12l-2.32.25.3,2.73-.91.1-.95-8.62,3.23-.35a3.87,3.87,0,0,1,2.68.5,2.71,2.71,0,0,1,1.17,2.07,2.77,2.77,0,0,1-.32,1.76,2.83,2.83,0,0,1-1.35,1.16L61.94,139Zm-1.17-4a2,2,0,0,0,.5-1.66,2,2,0,0,0-.85-1.54,3,3,0,0,0-2-.34l-2.29.25.48,4.32,2.29-.25A3,3,0,0,0,59.77,135.15Z"/><path class="cls-1" d="M72.4,137.29l.06.79-6.11.54L65.6,130l5.92-.51.07.79-5,.43.27,3.08,4.47-.39.07.78-4.47.39.28,3.21Z"/><path class="cls-1" d="M77.58,137.47a3.58,3.58,0,0,1-1.42-.72l.31-.73a3.55,3.55,0,0,0,1.3.67,4.76,4.76,0,0,0,1.63.19,2.94,2.94,0,0,0,1.72-.54,1.33,1.33,0,0,0,.51-1.15,1.15,1.15,0,0,0-.37-.81,2.23,2.23,0,0,0-.81-.42,11,11,0,0,0-1.3-.28,12.54,12.54,0,0,1-1.59-.38,2.43,2.43,0,0,1-1-.63,1.86,1.86,0,0,1-.5-1.25,2.12,2.12,0,0,1,.27-1.21,2.3,2.3,0,0,1,1-.93,4.17,4.17,0,0,1,1.75-.44,5.16,5.16,0,0,1,1.47.11,3.91,3.91,0,0,1,1.27.48l-.26.75a4.08,4.08,0,0,0-1.2-.46,4,4,0,0,0-1.22-.1,2.82,2.82,0,0,0-1.69.55,1.38,1.38,0,0,0-.5,1.17,1.15,1.15,0,0,0,.37.81,2.05,2.05,0,0,0,.83.43,12.55,12.55,0,0,0,1.3.28,12.78,12.78,0,0,1,1.57.37,2.45,2.45,0,0,1,1,.62,1.83,1.83,0,0,1,.5,1.23,2.24,2.24,0,0,1-.28,1.22,2.37,2.37,0,0,1-1,.92,4.52,4.52,0,0,1-1.78.44A5.6,5.6,0,0,1,77.58,137.47Z"/><path class="cls-1" d="M88.3,129.18l-3,.14,0-.79,7-.33,0,.79-3,.15.37,7.87-.92.05Z"/><path class="cls-1" d="M101.47,134.28l-4.83.13-1,2.35-1,0L98.43,128l.91,0,4.2,8.56-1,0Zm-.36-.73-2.21-4.61-2,4.72Z"/><path class="cls-1" d="M108.09,135.6a3.89,3.89,0,0,1-1-2.81l0-5H108l0,4.94a3.19,3.19,0,0,0,.69,2.25,3,3,0,0,0,4,0,3.21,3.21,0,0,0,.68-2.25l0-4.94h.9l0,5a3.89,3.89,0,0,1-.93,2.82,3.47,3.47,0,0,1-2.61,1A3.51,3.51,0,0,1,108.09,135.6Z"/><path class="cls-1" d="M125.37,136.62l-1.93-2.82c-.23,0-.46,0-.7,0l-2.33,0,0,2.75-.92,0,.17-8.68,3.25.07a3.89,3.89,0,0,1,2.58.84,2.68,2.68,0,0,1,.9,2.2,2.78,2.78,0,0,1-.54,1.7,2.84,2.84,0,0,1-1.49,1l2.06,3Zm-.66-4.11a2,2,0,0,0,.72-1.59,2,2,0,0,0-.65-1.63,3,3,0,0,0-2-.6l-2.31-.05-.08,4.35,2.3,0A3,3,0,0,0,124.71,132.51Z"/><path class="cls-1" d="M136.37,134.7l-4.83-.2-1.14,2.27-1,0,4.33-8.51.9,0,3.61,8.84-1,0Zm-.31-.76-1.88-4.74-2.28,4.57Z"/><path class="cls-1" d="M150,129.13l-.57,8.66-.75,0-5.11-7.39-.46,7-.91-.06.57-8.66.75,0,5.12,7.4.46-7Z"/><path class="cls-1" d="M157,130.5l-3-.27.07-.79,7,.61-.07.79-3-.26-.69,7.85-.91-.08Z"/><path class="cls-1" d="M170.33,139l-.09.79-6.1-.66.94-8.63,5.91.64-.08.79-5-.54-.33,3.07,4.46.48-.08.78-4.46-.49-.35,3.21Z"/><path class="cls-1" d="M168.33,58.36a55.19,55.19,0,0,0-15.8-29.64,6.71,6.71,0,0,1-.47-.53c2.09-2.43,4.1-4.83,6.25-7.14a4.61,4.61,0,0,0-2.37-7.76,1.14,1.14,0,0,1-.67-.64,5.17,5.17,0,0,0-3.8-3.8,1.19,1.19,0,0,1-.67-.67A5.2,5.2,0,0,0,147,4.36a1,1,0,0,1-.65-.64A4.64,4.64,0,0,0,138.5,1.4c-4.39,4-9,7.84-13.43,11.78a1.55,1.55,0,0,1-1.5.45,55.11,55.11,0,0,0-17-.59,2,2,0,0,1-1.37-.47A45.44,45.44,0,0,0,91,3.47,28.43,28.43,0,0,0,77.63,1,11.2,11.2,0,0,0,67.22,9.61a19,19,0,0,0-.14,7.59,39,39,0,0,0,4.61,12.69,1,1,0,0,1-.08,1.32A55.3,55.3,0,0,0,58.07,58.69c-.11.65-.22,1.29-.31,2v0c1-.08,2-.16,3.07-.27.12-.67.23-1.34.37-2a53,53,0,0,1,12.53-25c.25.34.47.62.67.9a34,34,0,0,0,9.18,9.23c5.89,3.74,11.88,4,17.94.34a1,1,0,0,1,1.42,0c.79.69,1.51,1.42,2.35,2.2-2.88,2.4-5.72,4.52-8.29,7a13.05,13.05,0,0,1-8.54,3.68l-.33,0a172.12,172.12,0,0,0-23.58,3.38,642.12,642.12,0,0,1,95.29-.39,218,218,0,0,0-22.91-3.19.72.72,0,0,0-.19,0c-1.17-.11-2.35-.23-3.52-.31a2.16,2.16,0,0,1-1.25-.42c-3.8-3.1-7.57-6.25-11.33-9.38a2.41,2.41,0,0,1-.2-.22,3.64,3.64,0,0,1,4.16-2A50.55,50.55,0,0,1,130,45.75a13.61,13.61,0,0,0,2.49.69,6.34,6.34,0,0,0,5.63-2.31q5.53-6.36,11.11-12.73c.22-.25.47-.53.81-.86A53.28,53.28,0,0,1,165.2,58.11c.14.67.28,1.34.39,2l3.07.26C168.58,59.7,168.44,59,168.33,58.36ZM121.19,16.28l.26.33a4.67,4.67,0,0,0-.84.48l-5.08,4.43a6.47,6.47,0,0,0-1.81,7.65,37.67,37.67,0,0,1,1.59,4.55c.61,2.57,0,4.74-2.74,6.11-.89-.87-1.9-1.79-2.82-2.82a1.41,1.41,0,0,1,0-1.28c3.88-6.48,3.38-12.7-.8-18.81-.2-.28-.4-.59-.67-1A50.28,50.28,0,0,1,121.19,16.28Zm-14,32.17,3.57,4.41c-.7.84-1.34,1.65-2,2.4a1,1,0,0,1-.62.25c-3.18.14-6.33.25-9.62.17Zm19.22,6.81a3.71,3.71,0,0,1,.34.31c-3.18,0-6.31,0-9.43,0-.31,0-.67-.39-.93-.67-3.18-3.79-6.33-7.62-9.51-11.44a8.65,8.65,0,0,0-3.57-2.74,2.91,2.91,0,0,0-2.85.26c-5.75,3.54-11,3.34-16.38-.79C77.86,35.39,73.89,29,71.3,21.63a22.17,22.17,0,0,1-1.45-8.95c.36-5.61,3.79-8.77,9.46-8.74a26.6,26.6,0,0,1,9.57,2,40.4,40.4,0,0,1,16,10.88,23.31,23.31,0,0,1,2.54,3.54,12.63,12.63,0,0,1-.39,13.82,3.5,3.5,0,0,0-.12,4.15A12.68,12.68,0,0,0,109.25,41C114.94,45.77,120.69,50.52,126.41,55.26Zm18-23c-2.85,3.24-5.67,6.47-8.51,9.71A3.47,3.47,0,0,1,131.41,43a37.4,37.4,0,0,0-4.19-1.54c-3.49-.86-6.78-.75-9.24,2.68-1-.78-1.86-1.48-2.81-2.23.14-.17.19-.28.28-.33,3.06-2.15,3.46-5.22,2.79-8.52a32.25,32.25,0,0,0-1.65-4.85c-.75-2-.5-3.21,1.09-4.61l22.88-20c.64-.56,1.26-1,2.09-.31s.92,1.56-.08,2.48c-6,5.53-12,11.08-18.06,16.61-.22.22-.47.44-.72.72l2.29,2.21c.22-.2.5-.42.75-.67q9-8.34,18.11-16.66c.95-.87,1.4-.9,2.15-.23,1,.87,1,1.48,0,2.49q-8.91,8.91-17.83,17.83a9.37,9.37,0,0,1-.89.72l2.4,2.32c.11-.14.36-.36.58-.59q9-9,18.06-18c.92-.92,1.48-1,2.26-.2s.84,1.37,0,2.29c-4.16,4.55-8.31,9.07-12.5,13.59-1.59,1.76-3.21,3.52-4.88,5.3.81.73,1.56,1.37,2.42,2.12.14-.14.42-.42.7-.72Q145.6,26,153.84,17c.92-1,1.68-1,2.46,0,.61.78.25,1.37-.31,2Z"/></g></g></svg>