<svg xmlns="http://www.w3.org/2000/svg" viewBox="0 0 238.07 138.72"><defs><style>.cls-1{fill:#494949;}.cls-2{fill:#ffbe00;}</style></defs><g id="Capa_2" data-name="Capa 2"><g id="Capa_1-2" data-name="Capa 1"><path class="cls-1" d="M238.07,60.7a2.44,2.44,0,1,1-2.42-2.38A2.39,2.39,0,0,1,238.07,60.7Zm-4.27,0a1.84,1.84,0,0,0,1.85,1.89,1.81,1.81,0,0,0,1.81-1.88,1.83,1.83,0,1,0-3.66,0Zm1.46,1.23h-.55V59.55a6.35,6.35,0,0,1,.91-.07,1.23,1.23,0,0,1,.81.19.58.58,0,0,1,.25.5.62.62,0,0,1-.49.57v0c.23.07.34.26.42.58a2.31,2.31,0,0,0,.17.58h-.58a2.23,2.23,0,0,1-.19-.58c0-.25-.18-.36-.49-.36h-.26Zm0-1.34h.27c.3,0,.55-.1.55-.34s-.16-.36-.51-.36l-.31,0Z"/><path class="cls-2" d="M218,124.32l0,.19-.28,1.72c-91.49-15.42-168.86-6.7-207.85.17l-.31-1.89C48.7,117.62,126.32,108.87,218,124.32Z"/><path class="cls-1" d="M11,115.45,4.82,76.39l6.13-1,5.33,33.47,10.1-1.61.89,5.58Z"/><path class="cls-1" d="M25.56,82.64c-.77-6.28,2.1-10.27,8.16-11s9.8,2.45,10.57,8.73L46.8,101c.77,6.28-2.1,10.28-8.16,11s-9.8-2.44-10.57-8.72Zm12.51-1.92c-.31-2.58-1.54-3.74-3.67-3.48s-3,1.68-2.72,4.26l2.61,21.42c.31,2.58,1.54,3.74,3.67,3.48s3-1.68,2.72-4.26Z"/><path class="cls-1" d="M49.87,100.68l-.2-2.25,5.86-.5.23,2.7c.22,2.53,1.4,3.74,3.54,3.55s3.15-1.57,2.92-4.22a7.72,7.72,0,0,0-1.55-4.17,20.35,20.35,0,0,0-4.61-4.2,26.91,26.91,0,0,1-5.93-5.67,12.73,12.73,0,0,1-2.05-6.06c-.53-6.25,2.37-10.07,8.39-10.59s9.31,2.77,9.86,9.14L66.47,80l-5.85.5-.18-2c-.22-2.59-1.34-3.79-3.43-3.62s-3,1.51-2.83,4a7,7,0,0,0,1.52,3.83,24.36,24.36,0,0,0,4.67,4.14,22.79,22.79,0,0,1,5.88,5.74A13.28,13.28,0,0,1,68.32,99c.55,6.47-2.41,10.3-8.49,10.82S50.41,107,49.87,100.68Z"/><path class="cls-1" d="M85.56,107.55,78.08,68.27,84.34,68l5.3,30.89,2.94-31.2,5.7-.21L93.8,107.24Z"/><path class="cls-1" d="M102.46,107l-.21-39.54,16.94-.09,0,5.65-10.73.06.06,10.45,8.53,0,0,5.65-8.53,0,.06,12.14,10.74-.06,0,5.65Z"/><path class="cls-1" d="M122.78,76.55c.16-6.16,3.47-9.63,9.4-9.47s9.06,3.8,8.89,10L141,81.22l-5.87-.16.12-4.57c.06-2.43-.92-3.7-3-3.76s-3.14,1.16-3.2,3.59l-.59,22.08c-.07,2.43.92,3.64,3,3.7s3.13-1.1,3.2-3.53l.15-5.76,5.88.15-.15,5.31c-.16,6.16-3.47,9.63-9.4,9.47s-9.06-3.8-8.89-10Z"/><path class="cls-1" d="M143.69,107.64l2.05-39.49,6.21.32-2,39.49Z"/><path class="cls-1" d="M154.27,108.15l3.13-39.42,7.66.61,4.37,24.09,1.88-23.6,5.52.44L173.7,109.7l-6.25-.5-5.38-29.39-2.28,28.78Z"/><path class="cls-1" d="M181,80.11c.74-6.28,4.47-9.48,10.53-8.78s8.95,4.69,8.21,11L197.34,103c-.74,6.28-4.47,9.49-10.53,8.78s-8.95-4.68-8.21-11Zm12.62,1.08q.45-3.87-2.75-4.25c-2.13-.24-3.35.92-3.65,3.5l-2.5,21.43c-.3,2.59.62,4,2.75,4.25s3.35-.92,3.65-3.5Z"/><path class="cls-1" d="M200.4,103.36l.34-2.23,5.81.88-.41,2.68c-.38,2.52.49,4,2.61,4.28s3.43-.79,3.83-3.41a7.77,7.77,0,0,0-.52-4.42,21.09,21.09,0,0,0-3.5-5.17,26.29,26.29,0,0,1-4.44-6.9,12.69,12.69,0,0,1-.57-6.37c.94-6.2,4.66-9.23,10.64-8.33s8.4,4.88,7.44,11.19l-.25,1.62-5.81-.88.31-2c.39-2.57-.42-4-2.49-4.32s-3.31.75-3.69,3.26a7,7,0,0,0,.57,4.09,24.75,24.75,0,0,0,3.57,5.11,22.78,22.78,0,0,1,4.37,7,13.39,13.39,0,0,1,.53,6.65c-1,6.42-4.75,9.45-10.78,8.53S199.44,109.67,200.4,103.36Z"/><path class="cls-2" d="M227.59,66l-.05.27L227.26,68c-20.71-3.85-40.79-6.42-59.89-8l-3.05-.25c-1.91-.16-3.82-.3-5.71-.41a637.89,637.89,0,0,0-94.56.38c-1.25.09-2.46.2-3.68.28-1,.11-2,.2-3,.28a552.88,552.88,0,0,0-57,8L0,66.27a551.46,551.46,0,0,1,57.63-8c1-.11,2-.19,3.1-.27,8.36-.72,17.28-1.31,26.72-1.67l.33,0c14.82-.61,30.88-.75,47.91-.2a.49.49,0,0,1,.19,0q13.62.42,28.05,1.55l3.1.25C186.36,59.52,206.63,62.12,227.59,66Z"/><path class="cls-1" d="M60.47,138.08l-2.26-2.54a4.6,4.6,0,0,1-.68.11l-2.3.26.3,2.71-.9.1-.94-8.56,3.2-.35a3.93,3.93,0,0,1,2.66.5,2.69,2.69,0,0,1,1.16,2.05,2.81,2.81,0,0,1-.32,1.75,2.85,2.85,0,0,1-1.34,1.16l2.41,2.7Zm-1.16-4a2.21,2.21,0,0,0-.35-3.17,3,3,0,0,0-2-.35l-2.27.25.47,4.3,2.27-.25A3.06,3.06,0,0,0,59.31,134.11Z"/><path class="cls-1" d="M71.87,136.24l.07.78-6.07.53L65.12,129l5.89-.51.06.78-5,.44.27,3,4.43-.39.07.77-4.44.39.28,3.19Z"/><path class="cls-1" d="M77,136.41a3.24,3.24,0,0,1-1.41-.72l.31-.72a3.28,3.28,0,0,0,1.29.67,4.59,4.59,0,0,0,1.61.19,3,3,0,0,0,1.7-.54,1.31,1.31,0,0,0,.51-1.14,1.14,1.14,0,0,0-.37-.8,2.11,2.11,0,0,0-.8-.42,11.22,11.22,0,0,0-1.29-.28,12.34,12.34,0,0,1-1.57-.37,2.65,2.65,0,0,1-1-.63,1.83,1.83,0,0,1-.49-1.24,2.16,2.16,0,0,1,.26-1.2,2.45,2.45,0,0,1,1-.93,4.28,4.28,0,0,1,1.75-.43,5.43,5.43,0,0,1,1.45.1,4.47,4.47,0,0,1,1.26.48l-.26.75a3.92,3.92,0,0,0-1.19-.46,4.19,4.19,0,0,0-1.21-.1,2.76,2.76,0,0,0-1.67.55,1.36,1.36,0,0,0-.5,1.16,1.14,1.14,0,0,0,.37.81,1.94,1.94,0,0,0,.82.42,12.27,12.27,0,0,0,1.29.28,15.65,15.65,0,0,1,1.56.36,2.52,2.52,0,0,1,1,.62,1.82,1.82,0,0,1,.49,1.22,2.1,2.1,0,0,1-.27,1.21,2.37,2.37,0,0,1-1,.92,4.55,4.55,0,0,1-1.76.43A5.45,5.45,0,0,1,77,136.41Z"/><path class="cls-1" d="M87.63,128.19l-3,.14,0-.79,7-.32,0,.78-3,.14L88.9,136,88,136Z"/><path class="cls-1" d="M100.69,133.25l-4.8.13-1,2.33-.94,0,3.7-8.71.89,0,4.17,8.5-1,0Zm-.35-.73L98.14,128l-1.93,4.68Z"/><path class="cls-1" d="M107.26,134.56a3.86,3.86,0,0,1-.94-2.79l0-4.93h.91l0,4.9a3.2,3.2,0,0,0,.68,2.23,2.51,2.51,0,0,0,2,.73,2.55,2.55,0,0,0,2-.74,3.2,3.2,0,0,0,.66-2.25l0-4.89h.89l0,4.93a3.81,3.81,0,0,1-.92,2.79,3.43,3.43,0,0,1-2.59,1A3.54,3.54,0,0,1,107.26,134.56Z"/><path class="cls-1" d="M124.44,135.57l-1.92-2.8a5.1,5.1,0,0,1-.68,0l-2.32,0,0,2.73-.91,0,.17-8.61,3.22.06a3.88,3.88,0,0,1,2.57.84,2.68,2.68,0,0,1,.89,2.18,2.65,2.65,0,0,1-2,2.67l2,3Zm-.65-4.08a2.21,2.21,0,0,0,.06-3.19,3,3,0,0,0-1.94-.6l-2.29,0-.08,4.31,2.29.05A3,3,0,0,0,123.79,131.49Z"/><path class="cls-1" d="M135.36,133.66l-4.8-.2-1.13,2.26-.94,0,4.29-8.44.9,0,3.57,8.76-1,0Zm-.31-.75-1.87-4.71-2.26,4.54Z"/><path class="cls-1" d="M148.84,128.14l-.57,8.59-.74,0-5.07-7.33-.46,7-.91-.06.57-8.59.75,0,5.07,7.33.46-7Z"/><path class="cls-1" d="M155.82,129.5l-3-.27.07-.78,6.93.61-.07.78-3-.26-.68,7.79-.91-.08Z"/><path class="cls-1" d="M169.06,137.9l-.09.78-6.05-.66.93-8.56,5.87.64-.09.78-5-.54-.33,3,4.42.48-.08.77-4.43-.48-.34,3.18Z"/><path class="cls-2" d="M167,57.91A54.74,54.74,0,0,0,151.36,28.5c-.17-.14-.28-.33-.47-.52,2.08-2.41,4.07-4.79,6.2-7.09a4.57,4.57,0,0,0-2.35-7.7,1.2,1.2,0,0,1-.67-.64,5.1,5.1,0,0,0-3.76-3.76,1.26,1.26,0,0,1-.67-.67,5.14,5.14,0,0,0-3.76-3.79,1,1,0,0,1-.64-.64,4.61,4.61,0,0,0-7.81-2.3c-4.35,4-8.89,7.78-13.32,11.69a1.56,1.56,0,0,1-1.49.44,54.58,54.58,0,0,0-16.87-.58,2,2,0,0,1-1.35-.47,45.19,45.19,0,0,0-14.13-9A28.21,28.21,0,0,0,77,1,11.08,11.08,0,0,0,66.71,9.53a18.59,18.59,0,0,0-.14,7.54,38.7,38.7,0,0,0,4.57,12.6.92.92,0,0,1-.08,1.3A54.79,54.79,0,0,0,57.63,58.24c-.12.64-.23,1.28-.31,1.94v0c1-.08,2-.17,3-.28.11-.66.22-1.33.36-2A52.65,52.65,0,0,1,73.16,33.13c.25.33.47.61.66.88a33.69,33.69,0,0,0,9.11,9.17c5.85,3.71,11.8,4,17.81.33a1.05,1.05,0,0,1,1.41,0c.78.69,1.5,1.41,2.33,2.19-2.85,2.38-5.68,4.48-8.23,6.89a13,13,0,0,1-8.47,3.66l-.33,0a172.82,172.82,0,0,0-23.4,3.35,637.89,637.89,0,0,1,94.56-.38,214.55,214.55,0,0,0-22.73-3.16.49.49,0,0,0-.19,0c-1.17-.11-2.33-.22-3.49-.3a2.18,2.18,0,0,1-1.25-.42c-3.76-3.07-7.5-6.2-11.24-9.3-.06-.06-.11-.14-.2-.22a3.61,3.61,0,0,1,4.13-2A52.17,52.17,0,0,1,129,45.39a14.3,14.3,0,0,0,2.47.7,6.32,6.32,0,0,0,5.59-2.3q5.49-6.32,11-12.63c.22-.25.47-.53.8-.86a52.93,52.93,0,0,1,15,27.36c.14.67.28,1.33.39,2l3.05.25C167.28,59.24,167.14,58.57,167,57.91ZM120.26,16.15l.25.33a5.21,5.21,0,0,0-.83.47l-5,4.41a6.43,6.43,0,0,0-1.8,7.59,36.45,36.45,0,0,1,1.58,4.51c.61,2.55,0,4.71-2.71,6.06-.89-.86-1.89-1.77-2.8-2.79a1.4,1.4,0,0,1,0-1.28c3.85-6.42,3.35-12.6-.8-18.66-.2-.28-.39-.58-.67-1A49.59,49.59,0,0,1,120.26,16.15Zm-13.9,31.93c1.25,1.52,2.36,2.91,3.55,4.37-.7.84-1.33,1.64-2,2.39a1,1,0,0,1-.61.25c-3.15.13-6.28.24-9.55.16Zm19.08,6.76a3.61,3.61,0,0,1,.33.3c-3.15,0-6.26,0-9.36,0-.3,0-.66-.38-.91-.66-3.16-3.77-6.29-7.56-9.44-11.35a8.55,8.55,0,0,0-3.55-2.72,2.88,2.88,0,0,0-2.82.25C94,44.15,88.78,44,83.43,39.86c-6.17-4.74-10.1-11.14-12.68-18.39a22.22,22.22,0,0,1-1.44-8.89c.36-5.57,3.77-8.7,9.39-8.67a26.68,26.68,0,0,1,9.5,1.94,40.22,40.22,0,0,1,15.89,10.8,22.54,22.54,0,0,1,2.52,3.52,12.49,12.49,0,0,1-.39,13.7,3.52,3.52,0,0,0-.11,4.13,12.44,12.44,0,0,0,2.3,2.66C114.06,45.42,119.76,50.13,125.44,54.84ZM143.33,32c-2.83,3.21-5.62,6.43-8.45,9.64a3.43,3.43,0,0,1-4.48,1.08,35,35,0,0,0-4.16-1.53c-3.46-.85-6.73-.74-9.16,2.66l-2.8-2.21c.14-.17.19-.28.28-.33,3-2.14,3.43-5.18,2.77-8.45A31.85,31.85,0,0,0,115.69,28c-.74-2-.5-3.18,1.08-4.57q11.39-9.93,22.71-19.85c.64-.56,1.25-1,2.08-.31s.91,1.55-.09,2.47c-6,5.48-11.93,11-17.91,16.47-.22.23-.47.45-.72.72l2.27,2.19c.22-.19.5-.41.75-.66L143.83,8c.94-.86,1.38-.89,2.13-.23,1,.86,1,1.47,0,2.47L128.24,27.89a9.37,9.37,0,0,1-.89.72l2.38,2.3c.11-.14.36-.36.58-.58,6-5.95,11.94-11.94,17.92-17.89.91-.91,1.47-1,2.24-.19s.83,1.35,0,2.27Q144.26,21.29,138,28c-1.58,1.75-3.18,3.49-4.85,5.26.81.72,1.55,1.36,2.41,2.11.14-.14.42-.42.7-.72q8.17-8.89,16.36-17.75c.91-1,1.66-1,2.44,0,.61.78.25,1.36-.31,2Z"/></g></g></svg>