<svg xmlns="http://www.w3.org/2000/svg" viewBox="0 0 504.18 280"><defs><style>.cls-1{fill:#fff;}</style></defs><g id="Capa_2" data-name="Capa 2"><g id="Capa_1-2" data-name="Capa 1"><path class="cls-1" d="M482.94,275.4l-.06.43-.62,3.81c-202.68-34.17-374.07-14.85-460.44.36l-.68-4.17C107.88,260.56,279.83,241.17,482.94,275.4Z"/><path class="cls-1" d="M24.41,255.75,10.62,169.24l13.6-2.17L36,241.22l22.37-3.56,2,12.36Z"/><path class="cls-1" d="M56.58,183.08c-1.69-13.91,4.67-22.76,18.08-24.39S96.38,164.11,98.07,178l5.57,45.72c1.7,13.91-4.66,22.75-18.08,24.39s-21.71-5.43-23.41-19.34Zm27.72-4.26q-1-8.58-8.12-7.71t-6,9.43L75.92,228q1,8.56,8.13,7.7t6-9.43Z"/><path class="cls-1" d="M110.5,223l-.43-5,13-1.11.51,6c.49,5.61,3.1,8.28,7.84,7.87s7-3.49,6.48-9.35a17.27,17.27,0,0,0-3.43-9.25q-2.79-3.9-10.22-9.29c-6-4.51-10.41-8.66-13.13-12.57a28,28,0,0,1-4.55-13.42c-1.18-13.84,5.25-22.31,18.59-23.45,13.09-1.12,20.62,6.14,21.83,20.23l.31,3.62-13,1.11-.38-4.49c-.49-5.73-3-8.41-7.6-8s-6.74,3.34-6.26,9a15.65,15.65,0,0,0,3.37,8.5,54.23,54.23,0,0,0,10.33,9.16c6.16,4.5,10.55,8.77,13,12.7a29.45,29.45,0,0,1,4.59,14.05c1.24,14.34-5.32,22.81-18.79,24S111.71,237.13,110.5,223Z"/><path class="cls-1" d="M189.53,238.26l-16.58-87,13.88-.52,11.74,68.43L205.09,150l12.63-.48-9.93,88Z"/><path class="cls-1" d="M227,237l-.48-87.59,37.54-.21.07,12.51-23.78.14.13,23.15,18.89-.11.07,12.52-18.89.1.14,26.9,23.78-.13.07,12.52Z"/><path class="cls-1" d="M272,169.59c.37-13.64,7.71-21.33,20.85-21s20.05,8.43,19.68,22.06l-.24,9.26-13-.35.27-10.13c.14-5.38-2-8.19-6.66-8.32s-7,2.57-7.1,8L284.51,218c-.15,5.38,2,8.07,6.66,8.19s6.95-2.44,7.1-7.82l.34-12.76,13,.35-.32,11.76c-.36,13.63-7.71,21.32-20.84,21s-20-8.42-19.69-22.06Z"/><path class="cls-1" d="M318.34,238.45,322.89,151l13.75.71-4.55,87.48Z"/><path class="cls-1" d="M341.77,239.6l6.93-87.32,17,1.34L375.36,207l4.15-52.27,12.23,1L384.8,243,371,241.91l-11.91-65.09L354,240.57Z"/><path class="cls-1" d="M401,177.47c1.63-13.92,9.89-21,23.31-19.45s19.83,10.37,18.21,24.29l-5.34,45.75c-1.62,13.92-9.88,21-23.31,19.45s-19.83-10.37-18.2-24.3Zm27.95,2.38c.66-5.72-1.36-8.85-6.09-9.4s-7.42,2-8.08,7.75l-5.54,47.48q-1,8.58,6.08,9.4t8.09-7.75Z"/><path class="cls-1" d="M444,229l.75-4.95,12.87,2-.91,5.94c-.84,5.56,1.08,8.77,5.78,9.48s7.61-1.75,8.49-7.57a17.28,17.28,0,0,0-1.17-9.8Q468,219.6,462,212.61c-4.82-5.79-8.1-10.85-9.83-15.29a28,28,0,0,1-1.27-14.12c2.09-13.73,10.32-20.45,23.56-18.44,13,2,18.61,10.81,16.49,24.79l-.55,3.58-12.87-1.95.68-4.46c.87-5.69-.93-8.87-5.5-9.57s-7.35,1.67-8.19,7.24a15.61,15.61,0,0,0,1.28,9.05c1.33,2.87,3.92,6.68,7.89,11.33,4.94,5.81,8.21,11,9.69,15.4a29.5,29.5,0,0,1,1.17,14.73c-2.16,14.23-10.52,20.93-23.88,18.9S441.85,243,444,229Z"/><path class="cls-1" d="M504.18,146.2l-.12.61-.61,3.74c-45.89-8.52-90.36-14.23-132.69-17.79l-6.75-.55c-4.23-.37-8.46-.67-12.63-.92a1412.29,1412.29,0,0,0-209.49.86c-2.76.19-5.46.43-8.16.61-2.27.25-4.54.43-6.75.62A1227.43,1227.43,0,0,0,.67,151.11L0,146.81A1219.82,1219.82,0,0,1,127.66,129c2.27-.24,4.54-.43,6.87-.61,18.52-1.6,38.27-2.88,59.19-3.68.25,0,.49-.06.74-.06,32.82-1.35,68.4-1.66,106.12-.43a1.19,1.19,0,0,1,.43.06q30.18.92,62.14,3.43l6.87.56A1351.71,1351.71,0,0,1,504.18,146.2Z"/><path class="cls-1" d="M370,128.29c-4.66-25.22-16.37-46.87-34.72-65.15-.36-.31-.61-.74-1-1.17,4.6-5.33,9-10.61,13.74-15.7,6.57-7.05,1.29-15.7-5.21-17.05a2.58,2.58,0,0,1-1.47-1.41A11.33,11.33,0,0,0,333,19.46,2.65,2.65,0,0,1,331.5,18a11.4,11.4,0,0,0-8.34-8.4,2.16,2.16,0,0,1-1.41-1.41c-1.66-7.18-10.43-11.41-17.3-5.1-9.63,8.84-19.69,17.24-29.51,25.89a3.43,3.43,0,0,1-3.31,1,121,121,0,0,0-37.36-1.28,4.4,4.4,0,0,1-3-1.05A100.15,100.15,0,0,0,200,7.62c-9.39-3.86-19-6.31-29.32-5.46-11.6,1-20.18,8-22.88,19a41.33,41.33,0,0,0-.31,16.69c1.59,9.93,5.28,19.13,10.12,27.91.61,1.1.8,1.78-.18,2.88A121.57,121.57,0,0,0,127.66,129c-.25,1.41-.49,2.82-.68,4.3v.06c2.21-.19,4.48-.37,6.75-.62.24-1.47.49-2.94.8-4.35a116.8,116.8,0,0,1,27.54-55c.55.74,1,1.35,1.47,2,5.58,7.85,12,15,20.18,20.3,12.95,8.22,26.14,8.84,39.45.74a2.34,2.34,0,0,1,3.13.06c1.71,1.53,3.31,3.13,5.15,4.85-6.32,5.27-12.58,9.93-18.22,15.27-5.4,5.21-11.35,7.48-18.77,8.1-.25,0-.49.06-.74.06a379.65,379.65,0,0,0-51.83,7.42,1412.29,1412.29,0,0,1,209.49-.86,480.27,480.27,0,0,0-50.37-7,1.19,1.19,0,0,0-.43-.06c-2.57-.25-5.15-.49-7.73-.68a4.76,4.76,0,0,1-2.76-.92c-8.34-6.81-16.62-13.74-24.9-20.61-.12-.12-.25-.3-.43-.49,2-3.86,5.4-5,9.14-4.35,4.05.73,8,2.2,11.9,3.37a30.14,30.14,0,0,0,5.46,1.53A14,14,0,0,0,303.65,97q12.15-14,24.42-28c.49-.55,1-1.17,1.77-1.9,17.3,17.11,28.34,37.05,33.31,60.6.31,1.48.62,3,.86,4.48l6.75.55C370.58,131.23,370.27,129.76,370,128.29ZM266.42,35.78l.55.74a10.12,10.12,0,0,0-1.84,1c-3.75,3.25-7.43,6.5-11.17,9.75-5.09,4.48-6.44,10.43-4,16.81a82.11,82.11,0,0,1,3.49,10c1.35,5.64.06,10.43-6,13.43-2-1.9-4.17-3.92-6.2-6.19a3,3,0,0,1-.06-2.82c8.53-14.23,7.43-27.91-1.78-41.35-.43-.61-.86-1.29-1.47-2.15A110.27,110.27,0,0,1,266.42,35.78Zm-30.8,70.73c2.76,3.37,5.21,6.44,7.85,9.69-1.53,1.84-2.94,3.62-4.41,5.28a2.25,2.25,0,0,1-1.35.55c-7,.31-13.93.55-21.17.37C222.8,117.18,229.12,111.91,235.62,106.51Zm42.27,15a8.78,8.78,0,0,1,.73.67c-7,0-13.86,0-20.73-.06-.68,0-1.47-.86-2-1.47-7-8.34-13.92-16.75-20.91-25.15a18.87,18.87,0,0,0-7.86-6,6.33,6.33,0,0,0-6.25.55c-12.64,7.79-24.17,7.36-36-1.72-13.68-10.49-22.39-24.66-28.1-40.73a48.85,48.85,0,0,1-3.19-19.69c.8-12.33,8.35-19.26,20.8-19.2a58.76,58.76,0,0,1,21,4.29C208.94,18.3,221,25.9,230.59,36.88a49.88,49.88,0,0,1,5.58,7.8c5.77,10.24,5.46,20.48-.86,30.36-2,3.19-2.2,6.14-.24,9.14a27.56,27.56,0,0,0,5.09,5.89C252.67,100.62,265.31,111.05,277.89,121.48Zm39.62-50.61C311.26,78,305.06,85.1,298.8,92.22c-3,3.43-5.64,4-9.93,2.39a76.5,76.5,0,0,0-9.2-3.37c-7.67-1.91-14.91-1.66-20.31,5.88-2.15-1.71-4.11-3.25-6.2-4.9.31-.37.43-.62.62-.74,6.75-4.72,7.6-11.47,6.13-18.71a67.41,67.41,0,0,0-3.62-10.67c-1.65-4.36-1.1-7.06,2.4-10.12Q283.89,30,309,8c1.41-1.22,2.76-2.21,4.6-.67,2,1.72,2,3.43-.19,5.46C300.15,24.92,287,37.13,273.71,49.28c-.49.49-1,1-1.59,1.59l5,4.85c.49-.43,1.1-.92,1.66-1.47q19.88-18.31,39.81-36.63c2.08-1.9,3.07-2,4.72-.49,2.15,1.9,2.15,3.25-.06,5.46l-39.2,39.2a25,25,0,0,1-2,1.6c1.9,1.84,3.5,3.37,5.27,5.09.25-.31.8-.8,1.29-1.29q19.88-19.78,39.69-39.63c2-2,3.25-2.15,5-.43s1.84,3-.06,5Q319.57,47.16,305.8,62c-3.5,3.86-7.06,7.72-10.74,11.65,1.78,1.6,3.44,3,5.34,4.66.31-.3.92-.92,1.53-1.59q18.13-19.7,36.26-39.32c2-2.27,3.68-2.27,5.39-.06,1.35,1.71.56,3-.67,4.41Z"/></g></g></svg>