<?xml version="1.0" encoding="utf-8"?>
<!-- Generator: Adobe Illustrator 26.0.1, SVG Export Plug-In . SVG Version: 6.00 Build 0)  -->
<svg version="1.1" id="Capa_1" xmlns="http://www.w3.org/2000/svg" xmlns:xlink="http://www.w3.org/1999/xlink" x="0px" y="0px"
	 viewBox="0 0 1413.7 823.8" style="enable-background:new 0 0 1413.7 823.8;" xml:space="preserve">
<style type="text/css">
	.st0{opacity:0.21;}
	.st1{opacity:0.24;}
	.st2{fill:#FFFFFF;}
	.st3{opacity:0.24;fill:#FFBE00;enable-background:new    ;}
</style>
<g id="Capa_2_00000061462534482974930750000012405698663642177678_" class="st0">
	<g id="Capa_1-2">
		<g class="st1">
			<path class="st2" d="M1413.7,360.4c0,8-6.5,14.5-14.5,14.5s-14.5-6.5-14.5-14.5c0-7.9,6.4-14.1,14.6-14.1
				c7.8-0.2,14.2,6,14.4,13.8C1413.7,360.3,1413.7,360.3,1413.7,360.4z M1388.4,360.4c-0.1,6.1,4.7,11.1,10.7,11.3
				c0.1,0,0.2,0,0.3,0c6.1,0.1,10.8-5,10.8-11.2s-4.6-11.4-10.9-11.4c-6.1,0.1-10.9,5.1-10.8,11.2
				C1388.4,360.4,1388.4,360.4,1388.4,360.4z M1397.1,367.8h-3.3v-14.1c1.8-0.3,3.6-0.4,5.4-0.4c2.7,0,3.9,0.4,4.8,1.1
				c1,0.7,1.5,1.8,1.5,3c0,1.7-1.3,2.8-2.9,3.4v0.2c1.4,0.4,2.1,1.5,2.5,3.4c0.2,1.2,0.5,2.3,1,3.4h-3.4c-0.6-1.1-0.9-2.2-1.1-3.4
				c-0.2-1.5-1.1-2.1-2.9-2.1h-1.6L1397.1,367.8z M1397.1,359.8h1.6c1.8,0,3.3-0.6,3.3-2.1c0-1.3-0.9-2.1-3-2.1
				c-0.6,0-1.2,0-1.8,0.2L1397.1,359.8z"/>
		</g>
		<path class="st3" d="M1294.6,738.2l-0.2,1.2l-1.6,10.2C749.5,658,290,709.8,58.5,750.6l-1.8-11.2
			C289.2,698.5,750.1,646.5,1294.6,738.2z"/>
		<g class="st1">
			<path class="st2" d="M65.4,685.6l-37-231.9l36.4-5.8l31.7,198.8l60-9.6l5.3,33.1L65.4,685.6z"/>
			<path class="st2" d="M151.7,490.8c-4.5-37.3,12.5-61,48.5-65.4s58.2,14.5,62.8,51.8l14.9,122.5c4.5,37.3-12.5,61-48.5,65.4
				s-58.2-14.5-62.8-51.8L151.7,490.8z M226,479.3c-1.9-15.3-9.1-22.2-21.8-20.7c-12.6,1.6-18.1,10-16.2,25.3l15.5,127.2
				c1.9,15.3,9.1,22.2,21.8,20.7c12.6-1.6,18-10,16.2-25.3L226,479.3z"/>
			<path class="st2" d="M296.2,597.9l-1.2-13.4l34.8-3l1.4,16c1.3,15,8.3,22.2,21,21.1c13-1.1,18.7-9.3,17.4-25.1
				c-0.6-9-3.8-17.6-9.2-24.8c-5-7-14.1-15.3-27.4-24.9c-16.2-12.1-27.9-23.2-35.2-33.7c-7.1-10.8-11.3-23.2-12.2-36
				c-3.2-37.1,14.1-59.8,49.8-62.9c35.1-3,55.3,16.5,58.5,54.2l0.8,9.7l-34.8,3l-1-12c-1.3-15.4-8-22.5-20.4-21.5s-18.1,9-16.8,24
				c0.7,8.3,3.8,16.3,9,22.8c5.3,6.6,14.4,14.9,27.7,24.6c16.5,12,28.3,23.5,34.9,34c7,10.5,11.1,23,12.3,37.7
				c3.3,38.4-14.3,61.2-50.4,64.2C319.6,655.1,299.4,635.7,296.2,597.9z"/>
			<path class="st2" d="M508,638.7l-44.4-233.3l37.2-1.4l31.5,183.4l17.5-185.3l33.9-1.3l-26.6,236L508,638.7z"/>
			<path class="st2" d="M608.4,635.4l-1.3-234.8l100.6-0.6l0.2,33.5l-63.7,0.4l0.3,62l50.7-0.3l0.2,33.5l-50.7,0.3l0.4,72.1
				l63.7-0.3l0.2,33.5L608.4,635.4z"/>
			<path class="st2" d="M729.2,454.6c1-36.6,20.7-57.2,55.9-56.2s53.8,22.6,52.8,59.1l-0.7,24.8l-34.9-0.9l0.7-27.2
				c0.4-14.4-5.5-22-17.9-22.3s-18.7,6.9-19,21.3l-3.5,131.1c-0.4,14.4,5.5,21.6,17.9,22s18.6-6.5,19-21l0.9-34.2l34.9,0.9
				l-0.8,31.5c-1,36.5-20.7,57.2-55.9,56.2s-53.8-22.6-52.8-59.1L729.2,454.6z"/>
			<path class="st2" d="M853.3,639.2l12.2-234.5l36.8,1.9l-12.2,234.5L853.3,639.2z"/>
			<path class="st2" d="M916.1,642.3l18.6-234.1l45.5,3.6l26,143.1l11.1-140.1l32.8,2.6l-18.6,234.1l-37.1-3L962.4,474l-13.6,170.9
				L916.1,642.3z"/>
			<path class="st2" d="M1074.8,475.7c4.3-37.3,26.5-56.4,62.5-52.2s53.2,27.8,48.8,65.1l-14.3,122.6c-4.3,37.3-26.5,56.3-62.5,52.2
				s-53.2-27.8-48.8-65.1L1074.8,475.7z M1149.7,482.1c1.8-15.3-3.6-23.7-16.3-25.2c-12.7-1.5-19.9,5.5-21.7,20.8L1096.9,605
				c-1.8,15.3,3.7,23.7,16.3,25.2s19.9-5.5,21.7-20.8L1149.7,482.1z"/>
			<path class="st2" d="M1190.1,613.8l2-13.3l34.5,5.2l-2.4,15.9c-2.3,14.9,2.9,23.5,15.5,25.4c12.9,2,20.4-4.7,22.8-20.3
				c1.5-9.6,0.4-18.3-3.1-26.3c-3.2-8-10.1-18.2-20.8-30.7c-12.9-15.5-21.7-29.1-26.3-41c-4.4-12.1-5.5-25.1-3.4-37.8
				c5.6-36.8,27.7-54.8,63.2-49.4c34.8,5.3,49.9,29,44.2,66.4l-1.5,9.6l-34.5-5.2l1.8-11.9c2.3-15.2-2.5-23.8-14.8-25.7
				s-19.7,4.5-22,19.4c-1.3,8.3-0.1,16.7,3.4,24.3c3.6,7.7,10.5,17.9,21.2,30.4c13.2,15.6,22,29.5,26,41.3
				c4.3,11.8,5.4,24.9,3.2,39.5c-5.8,38.1-28.2,56.1-64,50.7C1199.4,674.9,1184.4,651.3,1190.1,613.8z"/>
		</g>
		<path class="st3" d="M1351.5,391.9l-0.3,1.6l-1.7,10c-123-22.9-242.2-38.1-355.7-47.7c-6.1-0.5-12.2-1-18.1-1.5
			c-11.3-1-22.7-1.8-33.9-2.5c-187-13.1-374.7-12.4-561.6,2.3c-7.4,0.5-14.6,1.1-21.9,1.6c-6.1,0.7-12.2,1.1-18.1,1.6
			c-145.9,13.2-262,32.4-338.6,47.5L0,393.5c77.4-15.3,194.9-34.7,342.2-47.7c6.1-0.7,12.2-1.1,18.4-1.6
			c49.7-4.3,102.6-7.7,158.7-9.9c0.7,0,1.3-0.2,2-0.2c88-3.6,183.3-4.4,284.5-1.1c0.4,0,0.8,0,1.2,0.2c53.9,1.6,109.5,4.7,166.6,9.2
			l18.4,1.5C1106.7,353.4,1227.1,368.9,1351.5,391.9z"/>
		<g class="st1">
			<path class="st2" d="M359,820l-13.4-15.1c-1.3,0.3-2.7,0.5-4,0.7l-13.6,1.5l1.8,16.1l-5.4,0.6l-5.6-50.8l19-2.1
				c6.5-0.7,11.7,0.3,15.8,3c4,2.7,6.3,6.7,6.9,12.1c1.2,7.4-2.9,14.5-9.9,17.2l14.3,16.1L359,820z M352.1,796.4
				c2.4-2.5,3.4-5.8,3-9.8c-0.4-4-2.1-7-5-9c-2.9-1.9-6.9-2.6-11.9-2l-13.5,1.4l2.8,25.5l13.5-1.5
				C346,800.5,349.7,798.9,352.1,796.4L352.1,796.4z"/>
			<path class="st2" d="M426.7,809l0.4,4.7l-36,3.1l-4.4-50.9l34.9-3l0.4,4.7l-29.5,2.6l1.5,18.1l26.4-2.3l0.4,4.6l-26.4,2.3
				l1.6,18.9L426.7,809z"/>
			<path class="st2" d="M457.2,810.1c-3.1-0.7-6-2.2-8.4-4.3l1.8-4.3c2.2,1.9,4.8,3.2,7.7,4c3.1,0.9,6.4,1.3,9.6,1.1
				c4.6-0.3,7.9-1.4,10.1-3.2c2.1-1.6,3.2-4.1,3-6.8c0-1.8-0.8-3.5-2.2-4.8c-1.4-1.2-3-2-4.7-2.5c-2.5-0.7-5.1-1.2-7.6-1.7
				c-3.2-0.5-6.3-1.3-9.4-2.2c-2.3-0.7-4.4-2-6.1-3.7c-1.9-2-2.9-4.6-2.9-7.3c-0.2-2.5,0.4-5,1.6-7.2c1.4-2.4,3.5-4.3,5.9-5.5
				c3.2-1.6,6.8-2.5,10.4-2.6c2.9-0.2,5.8,0,8.6,0.6c2.6,0.5,5.1,1.5,7.5,2.8l-1.5,4.4c-2.2-1.3-4.6-2.2-7.1-2.7
				c-2.4-0.5-4.8-0.7-7.2-0.6c-4.5,0.3-7.8,1.4-9.9,3.2c-2.1,1.7-3.2,4.3-2.9,6.9c0,1.8,0.8,3.6,2.2,4.8c1.4,1.2,3.1,2.1,4.9,2.5
				c1.9,0.5,4.5,1.1,7.7,1.7c3.1,0.5,6.2,1.2,9.3,2.1c2.3,0.7,4.4,2,6.1,3.7c1.8,2,2.9,4.6,2.9,7.2c0.2,2.5-0.4,5-1.6,7.2
				c-1.4,2.4-3.5,4.3-6,5.5c-3.3,1.6-6.8,2.4-10.5,2.6C464.5,811.4,460.8,811.1,457.2,810.1z"/>
			<path class="st2" d="M520.3,761.2l-18,0.8l-0.2-4.7l41.3-2l0.2,4.7l-17.9,0.9l2.2,46.4l-5.4,0.2L520.3,761.2z"/>
			<path class="st2" d="M597.9,791.3l-28.5,0.8l-5.8,13.8l-5.6,0.2l22-51.8l5.3-0.1l24.8,50.5l-5.7,0.2L597.9,791.3z M595.8,787
				l-13-27.1l-11.5,27.7L595.8,787z"/>
			<path class="st2" d="M636.9,799c-3.7-3.8-5.6-9.3-5.6-16.5l-0.1-29.3h5.4l0.1,29.1c0,6,1.4,10.4,4.1,13.3s6.6,4.3,11.6,4.3
				c5.1,0,9-1.5,11.7-4.4s4-7.4,4-13.3l-0.2-29.1h5.3l0.1,29.3c0,7.3-1.8,12.8-5.4,16.6c-3.7,3.8-8.8,5.7-15.4,5.8
				C645.8,804.7,640.6,802.8,636.9,799z"/>
			<path class="st2" d="M738.9,805.1l-11.4-16.7c-1.4,0.1-2.7,0.2-4.1,0.1l-13.7-0.3l-0.3,16.2l-5.4-0.1l1-51.1l19.1,0.4
				c6.5,0.1,11.6,1.8,15.2,5c3.6,3.2,5.4,7.5,5.3,13c0.2,7.4-4.8,14-12,15.8l12.2,17.8L738.9,805.1z M735.1,780.8
				c2.7-2.2,4.1-5.3,4.2-9.3c0.1-4.1-1.2-7.3-3.8-9.6c-2.6-2.3-6.5-3.5-11.5-3.5l-13.6-0.3l-0.5,25.6l13.6,0.3
				C728.5,784,732.4,783,735.1,780.8z"/>
			<path class="st2" d="M803.8,793.7l-28.5-1.2l-6.7,13.4l-5.6-0.2l25.5-50.1l5.3,0.2l21.2,52.1l-5.7-0.2L803.8,793.7z M802,789.3
				l-11.1-28l-13.4,26.9L802,789.3z"/>
			<path class="st2" d="M883.7,760.9l-3.3,51l-4.4-0.3l-30.1-43.5l-2.7,41.4l-5.4-0.4l3.3-51l4.4,0.3l30.2,43.6l2.7-41.4
				L883.7,760.9z"/>
			<path class="st2" d="M925.2,769l-17.9-1.6l0.4-4.7l41.2,3.6l-0.4,4.7l-17.9-1.6l-4.1,46.3l-5.4-0.5L925.2,769z"/>
			<path class="st2" d="M1003.8,818.9l-0.5,4.7l-36-3.9l5.5-50.8l34.9,3.8l-0.5,4.7l-29.5-3.2l-2,18.1l26.3,2.8l-0.5,4.6l-26.3-2.8
				l-2,18.9L1003.8,818.9z"/>
		</g>
		<path class="st3" d="M991.9,343.9c-12.5-67.6-43.9-125.6-93.1-174.6c-1-0.8-1.6-2-2.8-3.1c12.3-14.3,24.2-28.4,36.8-42.1
			c17.6-18.9,3.5-42.1-14-45.7c-1.8-0.7-3.2-2-4-3.8c-3.3-11.7-10.7-19.1-22.4-22.4c-1.8-0.7-3.3-2.1-4-3.9
			c-3.3-11.8-10.7-19.1-22.4-22.5c-1.8-0.6-3.2-2-3.8-3.8C858,2.7,834.5-8.7,816.1,8.3C790.3,32,763.3,54.5,737,77.7
			c-2.3,2.4-5.7,3.4-8.9,2.6c-33-6.3-66.8-7.5-100.1-3.5c-2.9,0.1-5.8-0.9-8-2.8c-24.4-22.9-52.8-41.1-83.9-53.6
			c-25.2-10.4-51-16.9-78.6-14.6c-31.1,2.6-54.1,21.5-61.3,50.8c-3.6,14.8-3.3,29.8-0.8,44.7c4.3,26.6,14.1,51.3,27.1,74.8
			c1.6,3,2.1,4.8-0.5,7.7c-41.9,46.7-68.5,100.7-79.8,162c-0.7,3.8-1.3,7.6-1.8,11.5v0.2c5.9-0.5,12-1,18.1-1.6
			c0.6-3.9,1.3-7.9,2.1-11.7c11.3-55.8,35.8-104.4,73.8-147.5c1.5,2,2.8,3.6,3.9,5.3c15,21.1,32.1,40.3,54.1,54.4
			c34.7,22,70.1,23.7,105.7,2c3.1-2,5.8-2.1,8.4,0.2c4.6,4.1,8.9,8.4,13.8,13c-16.9,14.1-33.7,26.6-48.8,40.9
			c-14.5,14-30.4,20.1-50.3,21.7c-0.7,0-1.3,0.2-2,0.2c-46.7,3.4-93.1,10.1-139,19.9c186.9-14.7,374.6-15.5,561.5-2.3
			c-44.6-8.6-89.7-14.9-135-18.8c-0.4-0.1-0.8-0.2-1.2-0.2c-6.9-0.7-13.8-1.3-20.7-1.8c-2.5-0.2-5.6-0.8-7.4-2.5
			c-22.4-18.2-44.6-36.8-66.8-55.2c-0.3-0.3-0.7-0.8-1.2-1.3c5.3-10.4,14.5-13.3,24.5-11.7c10.8,2,21.4,5.9,31.9,9
			c4.9,1.5,9.7,3.6,14.6,4.1c13.3,1.3,24.3-3.6,33.2-13.7c21.7-25,43.5-50,65.5-75c1.3-1.5,2.8-3.1,4.8-5.1
			c46.4,45.9,76,99.3,89.3,162.5c0.8,4,1.6,7.9,2.3,12c5.9,0.5,12,1,18.1,1.5C993.4,351.8,992.5,347.8,991.9,343.9z M714.2,95.9
			l1.5,2c-1.7,0.8-3.4,1.7-4.9,2.8c-10,8.7-19.9,17.4-29.9,26.2c-13.7,12-17.3,28-10.7,45.1c3.5,8.7,7.1,17.6,9.4,26.8
			c3.6,15.1,0.2,27.9-16.1,36c-5.3-5.1-11.2-10.5-16.6-16.6c-1.3-1.5-1.3-5.8-0.2-7.6c22.9-38.1,19.9-74.8-4.8-110.8
			c-1.2-1.7-2.3-3.5-4-5.8C663.3,91.3,688.9,92,714.2,95.9L714.2,95.9z M631.6,285.5c7.4,9,14,17.3,21,26
			c-4.1,4.9-7.9,9.7-11.8,14.1c-1,0.9-2.3,1.4-3.6,1.5c-18.7,0.8-37.3,1.5-56.7,1C597.2,314.1,614.2,300,631.6,285.5L631.6,285.5z
			 M744.9,325.6c0.7,0.6,1.4,1.2,2,1.8c-18.7,0-37.2,0-55.6-0.2c-1.8,0-3.9-2.3-5.4-4c-18.8-22.4-37.3-44.9-56.1-67.4
			c-5.8-7.1-12.5-12.8-21-16.1c-5.5-2.5-11.9-1.9-16.8,1.5c-33.9,20.9-64.8,19.7-96.5-4.6c-36.7-28.1-60-66.1-75.3-109.2
			c-6.1-16.9-9.7-34.5-8.5-52.8c2.1-33,22.4-51.6,55.8-51.5c19.6,0,38.3,4.6,56.4,11.5c36.3,14.3,68.6,34.7,94.4,64.1
			c5.7,6.5,10.7,13.5,15,20.9c15.5,27.5,14.6,54.9-2.3,81.4c-5.4,8.6-5.9,16.4-0.7,24.5c3.8,5.9,8.4,11.2,13.7,15.8
			C677.3,269.7,711.2,297.7,744.9,325.6L744.9,325.6z M851.1,190c-16.8,19.1-33.4,38.1-50.2,57.2c-8,9.2-15.1,10.8-26.6,6.4
			c-8-3.1-16.1-6.9-24.7-9c-20.6-5.1-40-4.4-54.4,15.8c-5.8-4.6-11-8.7-16.6-13.1c0.5-0.7,1-1.4,1.6-2
			c18.1-12.7,20.4-30.8,16.5-50.2c-2-9.7-6.1-19.2-9.7-28.6c-4.4-11.7-3-18.9,6.4-27.1c45-39.3,90-78.6,134.8-118
			c3.8-3.3,7.4-5.9,12.3-1.8c5.4,4.6,5.4,9.2-0.5,14.6c-35.5,32.6-71,65.2-106.4,97.8c-1.3,1.3-2.8,2.6-4.3,4.3
			c4.4,4.3,8.7,8.4,13.5,13c1.3-1.1,3-2.5,4.4-4c35.5-32.7,71.2-65.4,106.7-98.1c5.6-5.1,8.2-5.3,12.7-1.3c5.8,5.1,5.8,8.7-0.2,14.6
			L761.5,165.6c-1.7,1.5-3.4,2.9-5.3,4.3c5.1,4.9,9.4,9.1,14.1,13.6c0.7-0.8,2.1-2.1,3.5-3.4c35.5-35.3,71-70.7,106.4-106.2
			c5.4-5.4,8.7-5.8,13.3-1.2c4.9,4.6,4.9,8.1-0.2,13.5c-24.5,26.8-49.1,53.5-73.7,80.1c-9.4,10.4-18.9,20.7-28.7,31.2
			c4.8,4.3,9.2,8.1,14.3,12.5c0.8-0.8,2.5-2.5,4.1-4.3c32.4-35.2,64.8-70.3,97.1-105.4c5.4-6.1,9.9-6.1,14.5-0.2
			c3.6,4.6,1.5,8.1-1.8,11.8L851.1,190z"/>
	</g>
</g>
</svg>
