<svg xmlns="http://www.w3.org/2000/svg" viewBox="0 0 1828.84 799.2"><defs><style>.cls-1{fill:#fff;}.cls-2{fill:#238724;}.cls-3{fill:#ffbe00;}</style></defs><g id="Capa_2" data-name="Capa 2"><g id="Capa_1-2" data-name="Capa 1"><rect class="cls-1" x="1693.31" y="523.9" width="135.53" height="275.29" rx="67.76"/><rect class="cls-1" y="514.56" width="135.53" height="275.29" rx="67.76"/><path class="cls-1" d="M507.84,7.6Q502,14.4,494.24,23q2,2.59,2,10.2a19.76,19.76,0,0,1-1.46,8.3c-1,2.07-1.93,3.1-2.9,3.1s-1.24-.6-1.24-1.8a6.5,6.5,0,0,1,.4-2,23.35,23.35,0,0,0,.4-6.8c0-3.6-.54-5.4-1.6-5.4q-2.61,0-7.6,9t-5,12.2a4.39,4.39,0,0,0,2.4,4c.66.13.86.47.6,1s-1.18.87-2.36.6Q470,53.6,470,45.2t7.6-22c.8-1.33-.74-2-4.6-2q-14.61,0-36,11.8-23,12.6-23,24,0,5.4,11.4,5.4a113.68,113.68,0,0,0,13.2-1c5.46-.67,8.6-1,9.4-1q4.59,0,8.1,4.2a14.67,14.67,0,0,1,3.7,8.8l-.2.6v.2q-4.61-2.4-11.8-2.4-12.81,0-32,7.2a138,138,0,0,0-26.2,12.4q-11.61,7.2-15.4,13.5a24.63,24.63,0,0,0-3.8,12.9q0,19.39,28,19.4a108.77,108.77,0,0,0,45.8-9.8q20-9.2,27.1-18.4t7.1-15.2c0-2.53-1.34-5.2-4-8q-2.61-2.8-.4-3.4,4.4.8,8.6,6.4c2.8,3.74,4.2,6.93,4.2,9.6q2.6,5,1,9.4-6.6,16.8-31.4,27.6a109.21,109.21,0,0,1-44.4,9.8q-18,0-30.8-6.2-17-8-17-24.2,0-13.6,16.8-27.6a103.19,103.19,0,0,1,29.6-17l9.2-3.2Q401,65,401,50.8q0-10,15.6-22,12.6-9.8,24.8-14Q455,10,465.84,10q11.6,0,18.8,5.6,6.8-10.2,12.8-15.6a13.17,13.17,0,0,1,7,2.1A6.29,6.29,0,0,1,507.84,7.6Z"/><path class="cls-1" d="M581.43,18q0,8-16.2,27.6-13.4,16.2-27,32.4-19,23.21-20.8,28.8c-.27.93-.6,1.4-1,1.4-.67,0-.93-.66-.8-2q1.39-9,42.2-59,6.79-8.21,10.8-13.8,5.21-7.6,5.2-10.4c0-.67-.27-1-.8-1q-2.41,0-9.83,8.8-54.57,64.61-53.17,95,.41,7.61,5.63,7.6,4.83,0,9.85-5.4a127.26,127.26,0,0,0,16.69-21.6q6.43-11,6.43-7a4.49,4.49,0,0,1-.4,1.4q-3.6,12.4-17.4,28.2-7.61,8.81-16.8,8.8-13.39,0-13.4-15.6,0-16.61,14.2-45.4a256.3,256.3,0,0,1,29.4-47.4q17-21.79,25-21a10.13,10.13,0,0,1,7,4.2Q579.83,17.2,581.43,18Z"/><path class="cls-1" d="M616.83,83.24a.75.75,0,0,1-.4,1.16c-.4.4-.93.4-1.6,0h-2q-6.8,0-15.4,4.2-9.79,4.61-9,9.6.41,2.8,4.2,5.4a47.22,47.22,0,0,1,8,6.8q3.79,4.39,3.8,9,0,6.6-6.4,11a20.83,20.83,0,0,1-12.4,4q-13,0-13-9.6a13.21,13.21,0,0,1,.6-3.8q1.2-4,3.2-4c.27,0,.4.27.4.8a4.71,4.71,0,0,0,2.1,5,9.73,9.73,0,0,0,5.9,2,10.61,10.61,0,0,0,7.3-3,8.83,8.83,0,0,0,3.3-6.6,6.37,6.37,0,0,0-1.4-4q-3.79-3-9.8-10.8l-.2.4q-2.6,4.2-7,11-3.6,5-12.6,16.4a3.75,3.75,0,0,1-2.6,1.6c-.8,0-1.2-.47-1.2-1.4a2.66,2.66,0,0,1,.6-1.6q7.6-9.39,14.6-19.4,5.8-8.4,7.2-13-.19-9,9.2-15.2,8.6-5.81,17.8-5Q611.64,74.4,616.83,83.24Z"/><path class="cls-1" d="M650.43,111.8Q645.63,119,635,132q-5.21,5.2-10.8,5.2-13.2,0-13.2-15.4a36.25,36.25,0,0,1,4-16.8c-1.2-.67-1.4-1.53-.6-2.6q4-5.2,7.8-10.6c3.73-4.67,6.47-7.26,8.2-7.8a6.74,6.74,0,0,1,1.6-.2q3.4,0,9.4,5-21,21-20.6,39.2c.13,2.67,1.27,4,3.4,4s4.07-.93,6.2-2.8q8.6-7.39,19.2-22c1.87-2.66,3.13-4,3.8-4,.27,0,.4.2.4.6C653.83,105.54,652.7,108.2,650.43,111.8ZM661,61.6c-.13,1.2-1.37,2.33-3.7,3.4s-4,1.87-4.9,2.4a12.12,12.12,0,0,0-3.9,3.6,4.52,4.52,0,0,0-.5,3.8c.4,1.07.93,1.67,1.6,1.8s.87.53.6,1.2-.67.93-1.2.8a12.18,12.18,0,0,1-6.9-4.1,8.43,8.43,0,0,1-2.3-7.1c.27-1.47.73-2.4,1.4-2.8a13.67,13.67,0,0,1,4.5-1q3.49-.41,12.5-2a2.9,2.9,0,0,0,1.3-.6,2.9,2.9,0,0,1,1.3-.6C661.1,60.4,661.16,60.8,661,61.6Z"/><path class="cls-1" d="M730.63,18q0,8-16.2,27.6Q701,61.8,687.43,78q-19,23.21-20.8,28.8c-.27.93-.6,1.4-1,1.4-.67,0-.94-.66-.8-2q1.39-9,42.2-59,6.79-8.21,10.8-13.8Q723,25.8,723,23c0-.67-.27-1-.81-1q-2.4,0-9.83,8.8-54.55,64.61-53.16,95,.4,7.61,5.63,7.6,4.82,0,9.85-5.4a127.15,127.15,0,0,0,16.68-21.6q6.43-11,6.44-7a4.79,4.79,0,0,1-.4,1.4q-3.6,12.4-17.4,28.2-7.6,8.81-16.8,8.8-13.41,0-13.4-15.6,0-16.61,14.2-45.4a256.3,256.3,0,0,1,29.4-47.4q17-21.79,25-21a10.15,10.15,0,0,1,7,4.2Q729,17.2,730.63,18Z"/><path class="cls-1" d="M731.43,83.4q5.4,1.6,5.4,6.6,0,6-6.4,11.2-2.4,2-16.4,10.6-10,6-11.4,9.8c-.4.94-.94,1.33-1.6,1.2s-.67-.87-.4-1.8q2.42-6.8,12.08-14.2,12.69-9.6,14.5-11.8,2.41-3,2.42-5.2A2.31,2.31,0,0,0,727,87.2a10,10,0,0,0-5.23,2q-19.51,13-24.55,32.6a18.28,18.28,0,0,0-.6,4.4q0,6.79,7,6.8a18.58,18.58,0,0,0,9.4-2.8,39.66,39.66,0,0,0,11-10q4.59-5.81,6.4-5.8c.26,0,.4.2.4.59q0,2.58-6,9.92Q714,138,701.23,136.6q-11.4-1.2-13.2-12.95t10.6-27.71Q711,80,722.43,80.2,723.23,81.21,731.43,83.4Z"/><path class="cls-1" d="M790.23,115q-13.32,21-21.87,21.62-11.13.79-11.13-10.75,0-10.16,8-24.49,3.15-6,3.15-7.56c0-.4-.14-.6-.4-.6q-3.4,0-18.2,19.4-9,11.81-10.8,19.8-.4,1.8-3,1.8a5.92,5.92,0,0,1-4.6-2,7.22,7.22,0,0,1-2-6.2q.2-1.2,14.6-32.2c-1.34-1.07-1.67-2.26-1-3.6q.79-1.61,5.8-10.6Q752,77,758.23,77q6,0,2,6.4Q744,110.81,744,114.2c0,.4,1.26-1.13,3.8-4.6q9.79-13.39,26.2-29,.6.41,7,1.39c3.06.4,4.6,1.67,4.6,3.79q0,6.38-10.6,19.33t-10.6,23.51q0,4,2.4,4a7,7,0,0,0,3.4-1.19q7.2-4.35,16-16.43c1.2-1.59,2.26-2.38,3.2-2.38.66,0,1,.4,1,1.19A3.81,3.81,0,0,1,790.23,115Z"/><path class="cls-1" d="M832.42,84.6a7.21,7.21,0,0,1,1,3.8c0,2.14-.53,3.47-1.6,4q0-3.8-3.4-3.8a12.4,12.4,0,0,0-7.2,2.8q-6,4.39-13.4,13.4-7.8,9.8-9.6,16.2a23.65,23.65,0,0,0-.8,5.6q0,6.6,6.2,6.6a18.15,18.15,0,0,0,10.4-3.6,72.9,72.9,0,0,0,14.2-14c1.07-1.33,1.94-2,2.6-2,.4,0,.6.27.6.8q0,2.8-4.8,8.8a47.8,47.8,0,0,1-11,10.2,22.41,22.41,0,0,1-12.2,4,14,14,0,0,1-10.8-4.6q-4.2-4.61-4.2-12.2a32.2,32.2,0,0,1,3-13,54,54,0,0,1,13.5-19q9.11-8.4,17.5-8.4Q829.23,80.2,832.42,84.6Z"/><path class="cls-1" d="M869.62,111.8q-4.8,7.2-15.4,20.2-5.21,5.2-10.8,5.2-13.2,0-13.2-15.4a36.25,36.25,0,0,1,4-16.8c-1.2-.67-1.4-1.53-.6-2.6q4-5.2,7.8-10.6c3.73-4.67,6.47-7.26,8.2-7.8a6.74,6.74,0,0,1,1.6-.2q3.4,0,9.4,5-21,21-20.6,39.2c.13,2.67,1.27,4,3.4,4s4.07-.93,6.2-2.8q8.6-7.39,19.2-22c1.87-2.66,3.13-4,3.8-4,.27,0,.4.2.4.6C873,105.54,871.89,108.2,869.62,111.8Zm10.6-50.2c-.13,1.2-1.37,2.33-3.7,3.4s-4,1.87-4.9,2.4a12.12,12.12,0,0,0-3.9,3.6,4.52,4.52,0,0,0-.5,3.8c.4,1.07.93,1.67,1.6,1.8s.87.53.6,1.2-.67.93-1.2.8a12.18,12.18,0,0,1-6.9-4.1,8.43,8.43,0,0,1-2.3-7.1c.27-1.47.73-2.4,1.4-2.8a13.67,13.67,0,0,1,4.5-1q3.5-.41,12.5-2a2.9,2.9,0,0,0,1.3-.6,2.9,2.9,0,0,1,1.3-.6C880.29,60.4,880.35,60.8,880.22,61.6Z"/><path class="cls-1" d="M913.62,87.6a16.9,16.9,0,0,1,2.6,9.4q0,16.6-17,31.4-10.61,9.4-19.6,9a14.22,14.22,0,0,1-10.2-5q-4-4.6-4-11.8a32.2,32.2,0,0,1,3-13,53.58,53.58,0,0,1,14.2-19.1q9.79-8.7,18.4-8.7,1.2,0,4,2.5a10.89,10.89,0,0,0,5.2,2.9Q912,85,913.62,87.6Zm-8.4,1.2a12,12,0,0,0-7,2.6q-6,4.2-14.4,15.4Q874,120,874,127q0,6.41,7,6.4,9.4,0,20.4-13.8,10.4-13.2,10.4-23.2Q911.82,88.79,905.22,88.8Z"/><path class="cls-1" d="M995,83.4q5.4,1.6,5.4,6.6,0,6-6.4,11.2-2.4,2-16.4,10.6-10,6-11.4,9.8c-.4.94-.93,1.33-1.6,1.2s-.67-.87-.4-1.8q2.41-6.8,12.08-14.2Q989,97.2,990.8,95q2.41-3,2.42-5.2a2.31,2.31,0,0,0-2.62-2.6,10,10,0,0,0-5.23,2q-19.51,13-24.55,32.6a18.28,18.28,0,0,0-.6,4.4q0,6.79,7,6.8a18.56,18.56,0,0,0,9.4-2.8,39.66,39.66,0,0,0,11-10q4.61-5.81,6.4-5.8c.27,0,.4.2.4.59q0,2.58-6,9.92-10.8,13.08-23.6,11.69-11.4-1.2-13.2-12.95t10.6-27.71Q974.63,80,986,80.2,986.82,81.21,995,83.4Z"/><path class="cls-1" d="M1037.82,83.24a.75.75,0,0,1-.4,1.16c-.4.4-.94.4-1.6,0h-2q-6.79,0-15.4,4.2-9.79,4.61-9,9.6.41,2.8,4.2,5.4a47.22,47.22,0,0,1,8,6.8q3.8,4.39,3.8,9,0,6.6-6.4,11a20.83,20.83,0,0,1-12.4,4q-13,0-13-9.6a13.21,13.21,0,0,1,.6-3.8q1.2-4,3.2-4c.27,0,.4.27.4.8a4.71,4.71,0,0,0,2.1,5,9.73,9.73,0,0,0,5.9,2,10.62,10.62,0,0,0,7.3-3,8.83,8.83,0,0,0,3.3-6.6,6.37,6.37,0,0,0-1.4-4q-3.81-3-9.8-10.8l-.2.4q-2.6,4.2-7,11-3.6,5-12.6,16.4a3.75,3.75,0,0,1-2.6,1.6c-.8,0-1.2-.47-1.2-1.4a2.66,2.66,0,0,1,.6-1.6q7.6-9.39,14.6-19.4,5.8-8.4,7.2-13-.19-9,9.2-15.2,8.6-5.81,17.8-5Q1032.63,74.4,1037.82,83.24Z"/><path class="cls-1" d="M1109.22,83.4q5.4,1.6,5.4,6.6,0,6-6.4,11.2-2.4,2-16.4,10.6-10,6-11.4,9.8c-.4.94-.94,1.33-1.6,1.2s-.67-.87-.4-1.8q2.41-6.8,12.08-14.2,12.69-9.6,14.5-11.8,2.41-3,2.42-5.2a2.31,2.31,0,0,0-2.62-2.6,10,10,0,0,0-5.23,2q-19.52,13-24.55,32.6a18.28,18.28,0,0,0-.6,4.4q0,6.79,7,6.8a18.58,18.58,0,0,0,9.4-2.8,39.66,39.66,0,0,0,11-10q4.59-5.81,6.4-5.8c.26,0,.4.2.4.59q0,2.58-6,9.92Q1091.82,138,1079,136.6q-11.4-1.2-13.2-12.95t10.6-27.71q12.39-15.93,23.8-15.74Q1101,81.21,1109.22,83.4Z"/><path class="cls-1" d="M1192.42,18q0,8-16.2,27.6-13.41,16.2-27,32.4-19,23.21-20.8,28.8c-.27.93-.6,1.4-1,1.4-.67,0-.94-.66-.8-2q1.39-9,42.2-59,6.79-8.21,10.8-13.8,5.19-7.6,5.2-10.4c0-.67-.27-1-.81-1q-2.4,0-9.83,8.8-54.57,64.61-53.16,95,.39,7.61,5.62,7.6,4.83,0,9.86-5.4a127.15,127.15,0,0,0,16.68-21.6q6.43-11,6.44-7a4.79,4.79,0,0,1-.4,1.4q-3.6,12.4-17.4,28.2-7.6,8.81-16.8,8.8-13.41,0-13.4-15.6,0-16.61,14.2-45.4a256.3,256.3,0,0,1,29.4-47.4q17-21.79,25-21a10.15,10.15,0,0,1,7,4.2Q1190.82,17.2,1192.42,18Z"/><path class="cls-1" d="M1227.82,83.24a.76.76,0,0,1-.4,1.16c-.4.4-.94.4-1.6,0h-2q-6.81,0-15.4,4.2-9.81,4.61-9,9.6.39,2.8,4.2,5.4a47.22,47.22,0,0,1,8,6.8q3.8,4.39,3.8,9,0,6.6-6.4,11a20.85,20.85,0,0,1-12.4,4q-13,0-13-9.6a13.21,13.21,0,0,1,.6-3.8c.8-2.67,1.86-4,3.2-4,.26,0,.4.27.4.8a4.71,4.71,0,0,0,2.1,5,9.71,9.71,0,0,0,5.9,2,10.62,10.62,0,0,0,7.3-3,8.83,8.83,0,0,0,3.3-6.6,6.37,6.37,0,0,0-1.4-4q-3.81-3-9.8-10.8l-.2.4q-2.61,4.2-7,11-3.6,5-12.6,16.4a3.77,3.77,0,0,1-2.6,1.6c-.8,0-1.2-.47-1.2-1.4a2.66,2.66,0,0,1,.6-1.6q7.59-9.39,14.6-19.4,5.79-8.4,7.2-13-.21-9,9.2-15.2,8.6-5.81,17.8-5Q1222.61,74.4,1227.82,83.24Z"/><path class="cls-1" d="M1270.81,87.6a16.9,16.9,0,0,1,2.6,9.4q0,16.6-17,31.4-10.61,9.4-19.6,9a14.22,14.22,0,0,1-10.2-5q-4-4.6-4-11.8a32.2,32.2,0,0,1,3-13,53.58,53.58,0,0,1,14.2-19.1q9.8-8.7,18.4-8.7,1.2,0,4,2.5a10.89,10.89,0,0,0,5.2,2.9Q1269.21,85,1270.81,87.6Zm-8.4,1.2a12,12,0,0,0-7,2.6q-6,4.2-14.4,15.4-9.79,13.2-9.8,20.2,0,6.41,7,6.4,9.4,0,20.4-13.8,10.4-13.2,10.4-23.2Q1269,88.79,1262.41,88.8Z"/><path class="cls-1" d="M1332.61,115q-13.32,21-21.86,21.62-11.14.79-11.14-10.75,0-10.16,8.06-24.49,3.13-6,3.14-7.56c0-.4-.13-.6-.4-.6q-3.4,0-18.2,19.4-9,11.81-10.8,19.8-.4,1.8-3,1.8a5.92,5.92,0,0,1-4.6-2,7.22,7.22,0,0,1-2-6.2q.2-1.2,14.6-32.2c-1.33-1.07-1.67-2.26-1-3.6q.79-1.61,5.8-10.6c2.13-1.73,5.27-2.6,9.4-2.6s4.67,2.13,2,6.4q-16.2,27.41-16.2,30.8,0,.6,3.8-4.6,9.8-13.39,26.2-29,.6.41,7,1.39c3.07.4,4.6,1.67,4.6,3.79q0,6.38-10.6,19.33t-10.6,23.51q0,4,2.4,4a6.94,6.94,0,0,0,3.4-1.19q7.2-4.35,16-16.43c1.2-1.59,2.27-2.38,3.2-2.38.67,0,1,.4,1,1.19A3.81,3.81,0,0,1,1332.61,115Z"/><path class="cls-1" d="M1369.61,111.8q-4.8,7.2-15.4,20.2-5.2,5.2-10.8,5.2-13.2,0-13.2-15.4a36.25,36.25,0,0,1,4-16.8c-1.2-.67-1.4-1.53-.6-2.6q4-5.2,7.8-10.6c3.73-4.67,6.47-7.26,8.2-7.8a6.74,6.74,0,0,1,1.6-.2q3.4,0,9.4,5-21,21-20.6,39.2c.13,2.67,1.27,4,3.4,4s4.07-.93,6.2-2.8q8.6-7.39,19.2-22c1.87-2.66,3.13-4,3.8-4,.27,0,.4.2.4.6C1373,105.54,1371.88,108.2,1369.61,111.8Zm10.6-50.2c-.13,1.2-1.37,2.33-3.7,3.4s-4,1.87-4.9,2.4a12.12,12.12,0,0,0-3.9,3.6,4.52,4.52,0,0,0-.5,3.8c.4,1.07.93,1.67,1.6,1.8s.87.53.6,1.2-.67.93-1.2.8a12.18,12.18,0,0,1-6.9-4.1,8.43,8.43,0,0,1-2.3-7.1c.27-1.47.73-2.4,1.4-2.8a13.67,13.67,0,0,1,4.5-1q3.49-.41,12.5-2a2.9,2.9,0,0,0,1.3-.6,2.9,2.9,0,0,1,1.3-.6C1380.28,60.4,1380.34,60.8,1380.21,61.6Z"/><path class="cls-1" d="M1509.61,7.4c0,.93-.54,1.4-1.6,1.4a2.13,2.13,0,0,1-1.2-.4,21.73,21.73,0,0,0-11.2-3.2q-15.21,0-39.4,27.2a272.46,272.46,0,0,0-35,50q-15,27.41-15,42,0,7.8,4.4,7.8,2.6,0,5.6-2.8,8-6.8,19-22.2c2-2.66,3.33-4,4-4,.26,0,.4.2.4.6q0,3.6-8,14.4a131.88,131.88,0,0,1-10.8,12.8q-5.2,5.2-11,5.2a10.41,10.41,0,0,1-8.3-3.9q-3.3-3.9-3.3-10.5a45.48,45.48,0,0,1,.8-8.2q-14.4,22.6-24.2,22.6-4.61,0-8.5-4.17t-3.9-7.55q0-13.5,15.2-28.49t28-14.79a6.64,6.64,0,0,1,4.2,1.6q17-35.8,35.6-57.6,19.59-23,47.4-23a44.2,44.2,0,0,1,9.2,1.4C1507.07,4.67,1509.61,5.93,1509.61,7.4Zm-103.4,83.4a28.14,28.14,0,0,0-6,2.4,72.6,72.6,0,0,0-17.29,14q-9.26,9.6-12.27,17.8a8.6,8.6,0,0,0-.6,3q0,4.2,3.22,4.2,7.44,0,28.35-29.2Q1403.4,97.41,1406.21,90.8Z"/><path class="cls-1" d="M1480.21,87.6a16.9,16.9,0,0,1,2.6,9.4q0,16.6-17,31.4-10.61,9.4-19.6,9a14.18,14.18,0,0,1-10.2-5q-4-4.6-4-11.8a32.2,32.2,0,0,1,3-13,53.46,53.46,0,0,1,14.2-19.1q9.8-8.7,18.4-8.7,1.2,0,4,2.5a10.85,10.85,0,0,0,5.2,2.9Q1478.61,85,1480.21,87.6Zm-8.4,1.2a12,12,0,0,0-7,2.6q-6,4.2-14.4,15.4-9.81,13.2-9.8,20.2,0,6.41,7,6.4,9.39,0,20.4-13.8,10.4-13.2,10.4-23.2Q1478.41,88.79,1471.81,88.8Z"/><path class="cls-1" d="M252.24,166.4H287c22,0,32.8,12.2,32.8,34.6v70.8c0,22.4-10.8,34.6-32.8,34.6H252.24Zm22,20v100h12.4c7,0,11.2-3.6,11.2-13.6V200c0-10-4.2-13.6-11.2-13.6Z"/><path class="cls-1" d="M355.83,225.4H386v20h-30.2v41h38v20h-60v-140h60v20h-38Z"/><path class="cls-1" d="M459.43,166.4v108c0,10,4.4,13.6,11.4,13.6s11.4-3.6,11.4-13.6v-108H503V273c0,22.4-11.2,35.2-32.8,35.2s-32.8-12.8-32.8-35.2V166.4Z"/><path class="cls-1" d="M537.63,205V306.4h-19.8v-140h27.6L568,250.2V166.4h19.6v140H565Z"/><path class="cls-1" d="M674.63,306.4h-22.2l-3.8-25.4h-27l-3.8,25.4h-20.2l22.4-140h32.2ZM624.43,262h21.2L635,191.2Z"/><path class="cls-1" d="M781.63,198.6v5c0,14.4-4.4,23.6-14.2,28.2,11.8,4.6,16.4,15.2,16.4,30v11.4c0,21.6-11.4,33.2-33.4,33.2h-34.6v-140H749C771.83,166.4,781.63,177,781.63,198.6Zm-43.8-12.2v37h8.6c8.2,0,13.2-3.6,13.2-14.8v-7.8c0-10-3.4-14.4-11.2-14.4Zm0,57v43h12.6c7.4,0,11.4-3.4,11.4-13.8V260.4c0-13-4.2-17-14.2-17Z"/><path class="cls-1" d="M818,166.4v108c0,10,4.4,13.6,11.4,13.6s11.4-3.6,11.4-13.6v-108h20.8V273c0,22.4-11.21,35.2-32.8,35.2S796,295.4,796,273V166.4Z"/><path class="cls-1" d="M898.62,225.4h30.2v20h-30.2v41h38v20h-60v-140h60v20h-38Z"/><path class="cls-1" d="M969.82,205V306.4H950v-140h27.6l22.6,83.8V166.4h19.6v140h-22.6Z"/><path class="cls-1" d="M1106.82,306.4h-22.2l-3.8-25.4h-27l-3.8,25.4h-20.2l22.4-140h32.2Zm-50.2-44.4h21.2l-10.6-70.8Z"/><path class="cls-1" d="M1211.82,254.2v18.6c0,22.4-11.2,35.2-32.8,35.2s-32.8-12.8-32.8-35.2V200c0-22.4,11.2-35.2,32.8-35.2s32.8,12.8,32.8,35.2v13.6H1191v-15c0-10-4.4-13.8-11.4-13.8s-11.4,3.8-11.4,13.8v75.6c0,10,4.4,13.6,11.4,13.6s11.4-3.6,11.4-13.6v-20Z"/><path class="cls-1" d="M1223.42,200c0-22.4,11.8-35.2,33.4-35.2s33.4,12.8,33.4,35.2v72.8c0,22.4-11.8,35.2-33.4,35.2s-33.4-12.8-33.4-35.2Zm22,74.2c0,10,4.4,13.8,11.4,13.8s11.4-3.8,11.4-13.8V198.6c0-10-4.4-13.8-11.4-13.8s-11.4,3.8-11.4,13.8Z"/><path class="cls-1" d="M1351,265.8l15-99.4h30.6v140h-20.8V206l-15.2,100.4h-20.8l-16.4-99v99h-19.2v-140h30.6Z"/><path class="cls-1" d="M1412.61,166.4h22v140h-22Z"/><path class="cls-1" d="M1450.61,166.4h34.8c22,0,32.8,12.2,32.8,34.6v70.8c0,22.4-10.8,34.6-32.8,34.6h-34.8Zm22,20v100H1485c7,0,11.2-3.6,11.2-13.6V200c0-10-4.2-13.6-11.2-13.6Z"/><path class="cls-1" d="M1603.21,306.4H1581l-3.8-25.4h-27l-3.8,25.4h-20.2l22.4-140h32.2ZM1553,262h21.2l-10.6-70.8Z"/><path class="cls-1" d="M1634.61,285.2v21.2h-21.2V285.2Z"/><path class="cls-2" d="M117,655.74v2s0,.67-.33.67H110.3v-3l-1-8c-.34-1-.34-1.66-.67-2.66a19.08,19.08,0,0,0-1.67-4.67v-.66c-1-1.67-1.66-3.33-2.66-5l-2-3-.33-.67a44.51,44.51,0,0,0-11.33-11A18.84,18.84,0,0,0,88,618.09a35.11,35.11,0,0,0-5-2.66h0a51.85,51.85,0,0,0-7.66-2.67,51.87,51.87,0,0,0-10-1.33h-.66v-5.66c0-1,0-1,1-1h5.66a1,1,0,0,1,1.33,0,62.12,62.12,0,0,1,10.67,2.66,54.34,54.34,0,0,1,24.32,18h0c.33.34.67,1,1,1.34a29.22,29.22,0,0,1,2.66,4.33,40.41,40.41,0,0,1,4.67,11,2.14,2.14,0,0,1,0,2,60.36,60.36,0,0,1,1.33,7.67l-.33,4Z"/><path class="cls-2" d="M9,627.09v-1.33a4.89,4.89,0,0,1,.66-2.34,7,7,0,0,1,1.34-2l6.33-6.34c.66-.66,1.66-1.33,2.33-2a12,12,0,0,1,3-1.34l2-.33h3l2.67.67a14.45,14.45,0,0,1,8.33,7.66A16.16,16.16,0,0,1,40,624.09c1,3.33,2,7,2.67,10.33a14,14,0,0,1-1.33,9.66c-.67,1-1.34,1.67-2,2.67a36.91,36.91,0,0,1-3.67,3.33c-.67.33-.67,1.33-.33,2l1.33,4a56.67,56.67,0,0,0,8,13.66c.66.66,1,1.33,1.66,2A52.54,52.54,0,0,0,60,682.4a34.44,34.44,0,0,0,5,2.33c1.33.67,3,1,4.33,1.67a1,1,0,0,0,1.34,0l3.66-3.67a12.87,12.87,0,0,1,10-4,19.36,19.36,0,0,1,4.66,1h.67l9.66,2.67h1a13.36,13.36,0,0,1,8.66,9.66c.33.67.33,1.33.67,2v5.33a14,14,0,0,1-3.67,6l-5.33,5.33a5.84,5.84,0,0,1-2.33,1.66,8.64,8.64,0,0,1-3.67,1h-6a23,23,0,0,1-6.67-.66c-2.33-.67-4.66-.67-7-1.34a79.37,79.37,0,0,1-12.66-4L61,706.72l-2.33-1-6-3c-2.66-1.66-5.33-3-7.66-5-2-1.66-4.33-3.33-6.33-5-2.33-2-4.33-4-6.33-6-2-2.33-3.33-4-5-6L26,679.07c-.33-.34-.33-.67-.67-1-1.66-2.34-3.33-5-5-7.67-1-2-2-3.66-3-5.66l-1-2c-.34-.67-1.67-4-2.34-6a72.94,72.94,0,0,1-2.33-8v-2a6,6,0,0,0-.66-3.33c-.67-1,0-1.34,0-2s-.34-4-.67-6v-8Z"/><path class="cls-2" d="M63,631.42v-6.33c0-.33,0-.67.67-.67h5a2.14,2.14,0,0,1,2,0,39.54,39.54,0,0,1,6.66,2.34,34.13,34.13,0,0,1,18.66,23h0a1,1,0,0,1,0,1.33v4.66c0,1.67,0,1.34-1,1H89.31v-5a6.07,6.07,0,0,0-.66-3.33,24,24,0,0,0-7-11A26.69,26.69,0,0,0,71,631.09a9.55,9.55,0,0,0-3-.67H64Z"/><path class="cls-2" d="M64,651.74c-.66,0-1-.66-1-1.33v-5.66a15,15,0,0,1,5.33,1c.67,0,1,0,1.34.66.33.34.66.34,1,.67a12.6,12.6,0,0,1,3,3,18.69,18.69,0,0,1,1.67,2.66,9.22,9.22,0,0,1,1,4.34v1H70.66c-1,0-1,0-1-1a6.79,6.79,0,0,0-5-5.67l-.67.33Z"/><path class="cls-2" d="M1785.69,619.63a31.3,31.3,0,0,0-16.66-8,33.47,33.47,0,0,1-5.33-.66h-9a32.63,32.63,0,0,0-8,1,38.9,38.9,0,0,0-25.66,36.65,45.74,45.74,0,0,0,5.33,22,114,114,0,0,0,26.32,35.32,10.53,10.53,0,0,0,5.67,3h3a8.7,8.7,0,0,0,4.33-2c3.33-3,6.33-6,9.33-8.67a110.57,110.57,0,0,0,15.66-21.32,57.05,57.05,0,0,0,8.33-26.32A38.06,38.06,0,0,0,1785.36,619Zm-25.32,49c-10.67,0-19-9-19-19.33,0-10.66,9-19,19.33-19,10.66,0,19,9,19,19.33a18.85,18.85,0,0,1-19.32,19Z"/><path class="cls-3" d="M208.89,584.85c0-8.75-3.06-11.11-7.92-11.11s-7.91,2.64-7.91,9.58v6.25H178.61v-5.28c0-15.55,7.78-24.44,22.78-24.44s22.78,8.89,22.78,24.44v2.5c0,10.42-3.34,17-10.7,20,7.64,3.34,10.7,10.56,10.7,20.42v7.64c0,15.56-7.78,24.44-22.78,24.44s-22.78-8.88-22.78-24.44v-8.06h14.45v9c0,6.95,3.05,9.59,7.91,9.59s7.92-2.37,7.92-11v-7.64c0-9-3.06-12.36-10-12.36h-5.14V600.54h6c5.7,0,9.17-2.5,9.17-10.28Z"/><path class="cls-3" d="M234.89,573.18c11.81,0,14.45-5.69,16.81-12.22H262v97.22H246.7V584H234.89Z"/><path class="cls-3" d="M302.81,573.74c-4.86,0-7.92,2.64-7.92,9.58v10.42H280.45v-9.45c0-15.55,7.78-24.44,22.78-24.44S326,568.74,326,584.29c0,30.56-30.42,42-30.42,57.92a10.4,10.4,0,0,0,.14,2.08h28.89v13.89H280.45V646.24c0-28.61,30.28-33.34,30.28-61.39C310.73,576.1,307.67,573.74,302.81,573.74Z"/><path class="cls-3" d="M364.9,584.85c0-8.75-3.06-11.11-7.92-11.11s-7.92,2.64-7.92,9.58v6.25H334.62v-5.28c0-15.55,7.78-24.44,22.78-24.44s22.78,8.89,22.78,24.44v2.5c0,10.42-3.34,17-10.7,20,7.64,3.34,10.7,10.56,10.7,20.42v7.64c0,15.56-7.78,24.44-22.78,24.44s-22.78-8.88-22.78-24.44v-8.06h14.44v9c0,6.95,3.06,9.59,7.92,9.59s7.92-2.37,7.92-11v-7.64c0-9-3.06-12.36-10-12.36h-5.14V600.54h6c5.69,0,9.17-2.5,9.17-10.28Z"/><path class="cls-3" d="M412.82,573.74c-4.87,0-7.92,2.64-7.92,9.58v10.42H390.45v-9.45c0-15.55,7.78-24.44,22.78-24.44S436,568.74,436,584.29c0,30.56-30.42,42-30.42,57.92a10.4,10.4,0,0,0,.14,2.08h28.89v13.89H390.45V646.24c0-28.61,30.28-33.34,30.28-61.39C420.73,576.1,417.68,573.74,412.82,573.74Z"/><path class="cls-3" d="M459.21,626.79v9c0,6.95,3.05,9.45,7.91,9.45s7.92-2.5,7.92-9.45V614.43c0-6.94-3.06-9.58-7.92-9.58s-7.91,2.64-7.91,9.58v2.92H444.76L447.54,561h40.28v13.89H461.29L460,598c2.78-4.58,7.22-7.08,13.33-7.08,11.25,0,16.95,7.92,16.95,22.22v21.67c0,15.56-7.78,24.44-22.78,24.44s-22.78-8.88-22.78-24.44v-8.06Z"/><path class="cls-3" d="M499.49,585.13c0-16.39,7.5-25.28,23.33-25.28,15,0,22.78,8.89,22.78,24.44v2.5H531.15v-3.47c0-6.94-3-9.58-7.91-9.58-5.42,0-8.48,2.64-8.48,11.94v17.78c2.64-5.56,7.37-8.61,14.17-8.61,11.25,0,17,7.91,17,22.22v17.78c0,15.56-8.2,24.44-23.2,24.44s-23.19-8.88-23.19-24.44Zm15.27,33.19v17.5c0,6.95,3.06,9.45,7.92,9.45s7.92-2.5,7.92-9.45v-17.5c0-6.94-3.06-9.58-7.92-9.58S514.76,611.38,514.76,618.32Z"/><path class="cls-3" d="M584.91,584.85c0-8.75-3.06-11.11-7.92-11.11s-7.92,2.64-7.92,9.58v6.25H554.63v-5.28c0-15.55,7.78-24.44,22.78-24.44s22.77,8.89,22.77,24.44v2.5c0,10.42-3.33,17-10.69,20,7.64,3.34,10.69,10.56,10.69,20.42v7.64c0,15.56-7.77,24.44-22.77,24.44s-22.78-8.88-22.78-24.44v-8.06h14.44v9c0,6.95,3.06,9.59,7.92,9.59s7.92-2.37,7.92-11v-7.64c0-9-3.06-12.36-10-12.36h-5.14V600.54h6c5.69,0,9.17-2.5,9.17-10.28Z"/><path class="cls-3" d="M607.91,573.18c11.8,0,14.44-5.69,16.8-12.22H635v97.22H619.71V584h-11.8Z"/><path class="cls-3" d="M678.91,584.85c0-8.75-3-11.11-7.92-11.11s-7.91,2.64-7.91,9.58v6.25H648.63v-5.28c0-15.55,7.78-24.44,22.78-24.44s22.78,8.89,22.78,24.44v2.5c0,10.42-3.33,17-10.7,20,7.64,3.34,10.7,10.56,10.7,20.42v7.64c0,15.56-7.78,24.44-22.78,24.44s-22.78-8.88-22.78-24.44v-8.06h14.45v9c0,6.95,3,9.59,7.91,9.59s7.92-2.37,7.92-11v-7.64c0-9-3-12.36-10-12.36h-5.14V600.54h6c5.7,0,9.17-2.5,9.17-10.28Z"/><path d="M206,689.2q-8.72,0-13,6.71T188.77,718a16.66,16.66,0,0,1,7.49-8A23.83,23.83,0,0,1,208,707.12q10.08,0,16.1,6.26t6,17.34a26.72,26.72,0,0,1-2.6,11.94,19.79,19.79,0,0,1-7.83,8.42A24.29,24.29,0,0,1,207,754.22q-10.1,0-15.77-4.51a23.48,23.48,0,0,1-7.93-12.43A72.88,72.88,0,0,1,181,717.69q0-35.93,25.06-35.93,9.6,0,15.08,5.19a21,21,0,0,1,6.47,13.12h-8.23Q217.28,689.2,206,689.2Zm-7.84,27.17a14.19,14.19,0,0,0-6,5.19,15,15,0,0,0-2.3,8.47q0,7.44,4.31,12.09t12.34,4.66q6.85,0,10.91-4.26T221.48,731q0-7.63-3.92-12t-11.46-4.36A18.78,18.78,0,0,0,198.17,716.37Z"/><path d="M268.19,689.2q-8.71,0-13,6.71T251,718a16.66,16.66,0,0,1,7.49-8,23.83,23.83,0,0,1,11.71-2.89q10.08,0,16.1,6.26t6,17.34a26.72,26.72,0,0,1-2.6,11.94,19.79,19.79,0,0,1-7.83,8.42,24.29,24.29,0,0,1-12.68,3.14q-10.1,0-15.77-4.51a23.48,23.48,0,0,1-7.93-12.43,72.88,72.88,0,0,1-2.25-19.59q0-35.93,25.06-35.93,9.6,0,15.08,5.19a21,21,0,0,1,6.47,13.12H281.6Q279.46,689.2,268.19,689.2Zm-7.84,27.17a14.19,14.19,0,0,0-6,5.19A15,15,0,0,0,252,730q0,7.44,4.31,12.09t12.34,4.66q6.85,0,10.91-4.26T283.66,731q0-7.63-3.92-12t-11.46-4.36A18.78,18.78,0,0,0,260.35,716.37Z"/><path d="M308.82,710.94a16.8,16.8,0,0,1-2.93-10,17.75,17.75,0,0,1,2.64-9.55,18.19,18.19,0,0,1,7.88-6.76,33.53,33.53,0,0,1,25.36,0,18.54,18.54,0,0,1,7.94,6.76A17.53,17.53,0,0,1,352.4,701a16.66,16.66,0,0,1-3,9.94A17.83,17.83,0,0,1,341,717.2a18.7,18.7,0,0,1,9.65,6.52,17.85,17.85,0,0,1,3.57,11.21A19.76,19.76,0,0,1,351.13,746a20.39,20.39,0,0,1-8.87,7.35A31.75,31.75,0,0,1,329.09,756,31.07,31.07,0,0,1,316,753.39a20.48,20.48,0,0,1-8.76-7.35,19.69,19.69,0,0,1-3.14-11.11,18.22,18.22,0,0,1,3.53-11.26,17.82,17.82,0,0,1,9.6-6.47A18.15,18.15,0,0,1,308.82,710.94Zm8.43,13.56q-4.61,3.38-4.61,10.13a12.65,12.65,0,0,0,4.46,10.09q4.45,3.82,12,3.82t12-3.82a12.7,12.7,0,0,0,4.41-10.09q0-6.55-4.51-10t-11.85-3.48Q321.85,721.12,317.25,724.5Zm22.61-31.68q-3.92-3.23-10.77-3.23t-10.67,3.23c-2.61,2.15-3.92,5.26-3.92,9.3a10.84,10.84,0,0,0,4.07,8.82,16.05,16.05,0,0,0,10.52,3.33q6.57,0,10.63-3.38a11,11,0,0,0,4.06-8.86Q343.78,696,339.86,692.82Z"/><path d="M371.59,691.6q5.49-9.45,19.19-9.45t19.1,9.45q5.47,9.45,5.48,26.29,0,17.13-5.48,26.63t-19.1,9.5q-13.71,0-19.19-9.5t-5.48-26.63Q366.11,701,371.59,691.6Zm33.83,11.85a18.33,18.33,0,0,0-4.6-9.55q-3.48-3.63-10-3.63t-10.13,3.63a18.33,18.33,0,0,0-4.6,9.55,78.8,78.8,0,0,0-1.13,14.44,81.59,81.59,0,0,0,1.13,14.78,18.35,18.35,0,0,0,4.6,9.6q3.48,3.63,10.13,3.62t10-3.62a18.35,18.35,0,0,0,4.6-9.6,81.59,81.59,0,0,0,1.13-14.78A78.8,78.8,0,0,0,405.42,703.45Z"/><path d="M472.74,691H438.37v22.33a16.15,16.15,0,0,1,6.66-5.14,22.64,22.64,0,0,1,9.5-2q8.13,0,13.22,3.38a19,19,0,0,1,7.3,8.71,29.52,29.52,0,0,1,2.2,11.31,29,29,0,0,1-2.65,12.63,20.1,20.1,0,0,1-8.07,8.82,26,26,0,0,1-13.47,3.23q-10.28,0-16.64-5.29a22,22,0,0,1-7.74-14.1h8.71a14.61,14.61,0,0,0,5.39,8.71,16.63,16.63,0,0,0,10.38,3.14q7.74,0,11.65-4.65t3.92-12.29q0-7.63-3.92-11.8t-11.55-4.16a16.37,16.37,0,0,0-9.06,2.49,14.4,14.4,0,0,0-5.63,6.81h-8.42v-40h42.59Z"/><path d="M495.85,687q6.27-5.1,16.26-5.1a25.63,25.63,0,0,1,11.5,2.4,17.3,17.3,0,0,1,7.35,6.51,17.65,17.65,0,0,1,2.49,9.31A16.4,16.4,0,0,1,530,710.54a15.58,15.58,0,0,1-9.06,5.68v.49A18.19,18.19,0,0,1,531,722.88q3.72,4.61,3.72,12a19.82,19.82,0,0,1-2.55,10,17.51,17.51,0,0,1-7.64,7,27.18,27.18,0,0,1-12.24,2.54q-10.38,0-17-5.43t-7.45-15.43h8.62a14.81,14.81,0,0,0,4.8,9.6q4.11,3.72,11,3.72t10.42-3.57a12.5,12.5,0,0,0,3.58-9.26q0-7.33-4.9-10.57t-14.78-3.23h-2.26v-7.45h2.35q9-.09,13.62-3t4.6-9a10.85,10.85,0,0,0-3.38-8.33q-3.37-3.12-9.65-3.13a14.74,14.74,0,0,0-9.79,3.13,12.7,12.7,0,0,0-4.4,8.43H488.9Q489.59,692,495.85,687Z"/><path d="M572.82,689.2q-8.72,0-13,6.71T555.58,718a16.66,16.66,0,0,1,7.49-8,23.83,23.83,0,0,1,11.71-2.89q10.08,0,16.1,6.26t6,17.34a26.72,26.72,0,0,1-2.6,11.94,19.79,19.79,0,0,1-7.83,8.42,24.26,24.26,0,0,1-12.68,3.14q-10.09,0-15.77-4.51a23.54,23.54,0,0,1-7.93-12.43,72.88,72.88,0,0,1-2.25-19.59q0-35.93,25.07-35.93,9.58,0,15.08,5.19a21,21,0,0,1,6.46,13.12h-8.23Q584.08,689.2,572.82,689.2ZM565,716.37a14.25,14.25,0,0,0-6,5.19,15,15,0,0,0-2.3,8.47q0,7.44,4.31,12.09t12.34,4.66q6.86,0,10.92-4.26T588.29,731q0-7.63-3.92-12t-11.45-4.36A18.79,18.79,0,0,0,565,716.37Z"/><path class="cls-3" d="M991.38,592.24c0-14.33,7.49-22.61,21.29-22.61s21.29,8.28,21.29,22.61V602h-13.67V591.32c0-5.65-2.36-8.54-7.23-8.54s-7.23,2.89-7.23,8.54v51.39c0,5.66,2.37,8.42,7.23,8.42s7.23-2.76,7.23-8.42v-13.4H1034v12.35c0,14.33-7.49,22.61-21.29,22.61s-21.29-8.28-21.29-22.61Z"/><path class="cls-3" d="M1071.82,595.39v13.54a14.9,14.9,0,0,0-3.55-.39q-11.83,0-11.83,15.77V663H1042.5v-67h12.1l.26,11.3q2.76-12.62,13-12.62A8.9,8.9,0,0,1,1071.82,595.39Z"/><path class="cls-3" d="M1104.54,663c-.65-1.19-.92-3.82-1-7.89-2.63,6.18-7.36,9.2-14.2,9.2-8.93,0-14.59-6.44-14.59-16.83s4.47-16.56,16.17-22.34q7.31-3.55,9.07-5.13a6.05,6.05,0,0,0,1.84-4.47v-1.31c0-5.13-1.84-7.62-5.65-7.62-4.21,0-6.31,2.62-6.31,7.75v2.5h-13.14v-1.71c0-13.14,6.83-20.51,19.58-20.51,13.67,0,19.45,7,19.45,22.09v26.94q0,12.82,1.58,19.33Zm-2.76-21.82V629.7c-.66.79-3,2.5-6.83,5-4.21,2.63-6.31,6-6.31,10.39,0,4.86,2,7.23,5.91,7.23C1099.42,652.31,1101.78,648.63,1101.78,641.14Z"/><path class="cls-3" d="M1126.88,663V648.5h14.46V663Z"/><path class="cls-3" d="M1185.77,663v-70.2h-15.12V582.51c6,0,10.39-.79,13.15-2.36s5-4.74,6.7-9.2h9.73v92Z"/><path class="cls-3" d="M1224,663v-70.2H1208.9V582.51c6,0,10.38-.79,13.14-2.36s5-4.74,6.71-9.2h9.72v92Z"/><path class="cls-3" d="M1271.72,663l2.89-26.82H1268l.92-9.33h6.57l2.5-25h-6.7l.92-9.33h6.7l2.23-21.55h10.39l-2.1,21.55h9.72L1301.3,571h10.38l-2.1,21.55h6.7l-1,9.33h-6.57l-2.5,25h6.7l-1,9.33h-6.57L1302.48,663h-10.39l2.63-26.82H1285L1282.24,663Zm14.2-36.15h9.86l2.36-25h-9.73Z"/><path class="cls-3" d="M1335.86,663v-70.2h-15.11V582.51c6,0,10.38-.79,13.14-2.36s5-4.74,6.7-9.2h9.73v92Z"/><path class="cls-3" d="M1360,633.38c0-9.33,3.16-15.51,9.47-18.8v-.26c-5.92-3.28-8.94-9.33-8.94-18.14v-4.07c0-14.59,7.89-22.48,22.08-22.48s22.08,7.89,22.08,22.48v4.07c0,8.81-3,14.86-8.93,18.14v.26c6.31,3.29,9.46,9.47,9.46,18.8v8.15c0,14.72-8,22.74-22.61,22.74s-22.61-8-22.61-22.74Zm30.76-1.45c0-7-2.76-10.38-8.15-10.38s-8.15,3.42-8.15,10.38v8.81c0,7,2.76,10.39,8.15,10.39s8.15-3.42,8.15-10.39Zm-.52-40.22c0-5.91-2.5-8.93-7.63-8.93s-7.62,3-7.62,8.93v7.5c0,6.17,2.5,9.2,7.62,9.2s7.63-3,7.63-9.2Z"/><path class="cls-3" d="M1412.49,633.91h13.67v8.28c0,5.91,2.49,8.94,7.49,8.94s7.49-3,7.49-8.94V621.55q0-9.07-7.49-9.07t-7.49,9.07v.79h-13.67l2.63-51.39h38.11v13.14H1428L1426.81,606c2.76-4.47,7-6.7,12.75-6.7,10.65,0,16,7,16,21v20.77c0,14.85-7.49,23.13-21.56,23.13s-21.55-8.28-21.55-23.13Z"/><path class="cls-3" d="M1491.48,663c-.66-1.19-.92-3.82-1-7.89-2.63,6.18-7.36,9.2-14.2,9.2-8.93,0-14.59-6.44-14.59-16.83s4.47-16.56,16.17-22.34q7.29-3.55,9.07-5.13a6.05,6.05,0,0,0,1.84-4.47v-1.31c0-5.13-1.84-7.62-5.65-7.62-4.21,0-6.31,2.62-6.31,7.75v2.5h-13.15v-1.71c0-13.14,6.84-20.51,19.59-20.51,13.67,0,19.45,7,19.45,22.09v26.94q0,12.82,1.58,19.33Zm-2.76-21.82V629.7c-.66.79-3,2.5-6.83,5-4.21,2.63-6.31,6-6.31,10.39,0,4.86,2,7.23,5.91,7.23C1486.35,652.31,1488.72,648.63,1488.72,641.14Z"/><path class="cls-3" d="M1511.19,629.44V617.61h28.92v11.83Z"/><path class="cls-3" d="M1546,633.91h13.67v8.15q0,9.06,7.5,9.07c4.86,0,7.49-2.63,7.49-10.39v-7.49c0-8.41-2.76-11.7-9.47-11.7h-4.86V608.41h5.26c5.78,0,8.67-2.76,8.67-9.73V592c0-6.18-2.36-9.2-7.23-9.2-4.6,0-7,2.89-7,8.54v6h-13.67V592.5c0-14.72,7.49-22.87,21.16-22.87s21.16,8,21.16,22.74v3.29q0,14.77-10.25,18.53v.26q10.65,3.94,10.65,18.93v8.15c0,14.72-7.36,22.74-21.56,22.74S1546,656.12,1546,641.4Z"/><path class="cls-3" d="M1595.71,663V653a43.84,43.84,0,0,1,3.15-17.49c2.1-4.86,5.92-10.12,11.3-15.77s9.21-10.52,11.18-14.33a25.76,25.76,0,0,0,3-12.09c0-7.89-2.63-10.51-7.49-10.51s-7.49,3-7.49,9.06v9.86h-13.67v-8.94c0-14.85,7.49-23.13,21.55-23.13s21.56,8.28,21.56,23.13a34.41,34.41,0,0,1-4.08,16.3c-2.62,5.13-7.23,11.31-13.8,18.27-8.41,8.94-10.91,13.81-10.91,20.51v2h27.47V663Z"/><path d="M1362.69,720.29a16.37,16.37,0,0,1,4.47,5.55,16.12,16.12,0,0,1-.76,15.62,16.45,16.45,0,0,1-7,6,25.1,25.1,0,0,1-10.87,2.19h-23.27V687.27h22.37a25.32,25.32,0,0,1,10.83,2.11,15.29,15.29,0,0,1,6.71,5.68,14.9,14.9,0,0,1,2.24,8.05,13.93,13.93,0,0,1-3,9.18,16.8,16.8,0,0,1-7.92,5.23A13.2,13.2,0,0,1,1362.69,720.29Zm-29.31-6.08h13.69c3.82,0,6.77-.89,8.86-2.69a10.35,10.35,0,0,0,0-14.85q-3.14-2.68-9-2.68h-13.52Zm23.9,25.86a9.86,9.86,0,0,0,3.4-8,10.14,10.14,0,0,0-3.58-8.19q-3.58-3-9.58-3h-14.14v22h14.41Q1353.88,742.94,1357.28,740.07Z"/><path d="M1389,747.32a22.36,22.36,0,0,1-8.77-8.9,27.29,27.29,0,0,1-3.18-13.38,26.5,26.5,0,0,1,3.27-13.29,22.5,22.5,0,0,1,8.9-8.86,27.32,27.32,0,0,1,25.24,0,22.64,22.64,0,0,1,8.9,8.81,26.46,26.46,0,0,1,3.27,13.34,26.12,26.12,0,0,1-3.36,13.38,23.25,23.25,0,0,1-9.08,8.9,26,26,0,0,1-12.71,3.13A25.09,25.09,0,0,1,1389,747.32Zm20.72-6.08a15.78,15.78,0,0,0,6.22-6.18,19.76,19.76,0,0,0,2.37-10,20.13,20.13,0,0,0-2.33-10,15.2,15.2,0,0,0-6.09-6.12,17.51,17.51,0,0,0-16.33,0,14.77,14.77,0,0,0-6,6.12,20.79,20.79,0,0,0-2.23,10,21.17,21.17,0,0,0,2.19,10.11,14.49,14.49,0,0,0,5.86,6.13,16.46,16.46,0,0,0,8,2A17.23,17.23,0,0,0,1409.72,741.24Z"/><path d="M1468.73,702.58a18.39,18.39,0,0,1,7.12,7v-8.95h8.23v50.11a24.47,24.47,0,0,1-2.86,11.95,20.43,20.43,0,0,1-8.19,8.19,25.12,25.12,0,0,1-12.39,2.95q-9.67,0-16.11-4.56a17.86,17.86,0,0,1-7.61-12.44h8a12.86,12.86,0,0,0,5.55,7.2,18.2,18.2,0,0,0,10.12,2.73,14.91,14.91,0,0,0,11-4.21q4.25-4.2,4.25-11.81V740.43a19.65,19.65,0,0,1-7.16,7.16,21,21,0,0,1-11.1,2.86,22.31,22.31,0,0,1-20.22-12.26,28.09,28.09,0,0,1-3-13.24,27.54,27.54,0,0,1,3-13.2,22.11,22.11,0,0,1,8.37-8.82,23,23,0,0,1,11.85-3.13A21.8,21.8,0,0,1,1468.73,702.58Zm4.88,12.79a15.84,15.84,0,0,0-6-6.31,17.13,17.13,0,0,0-16.69,0,15.6,15.6,0,0,0-6,6.26,19.88,19.88,0,0,0-2.24,9.67,20.32,20.32,0,0,0,2.24,9.8,15.85,15.85,0,0,0,6,6.35,16.24,16.24,0,0,0,8.32,2.19,16.47,16.47,0,0,0,8.37-2.19,15.7,15.7,0,0,0,6-6.35,20.23,20.23,0,0,0,2.24-9.71A20,20,0,0,0,1473.61,715.37Z"/><path d="M1506.77,747.32a22.29,22.29,0,0,1-8.77-8.9,27.29,27.29,0,0,1-3.18-13.38,26.5,26.5,0,0,1,3.27-13.29,22.44,22.44,0,0,1,8.9-8.86,27.32,27.32,0,0,1,25.24,0,22.7,22.7,0,0,1,8.9,8.81A26.46,26.46,0,0,1,1544.4,725a26.12,26.12,0,0,1-3.36,13.38,23.38,23.38,0,0,1-9.08,8.9,26,26,0,0,1-12.71,3.13A25.06,25.06,0,0,1,1506.77,747.32Zm20.71-6.08a15.65,15.65,0,0,0,6.22-6.18,19.76,19.76,0,0,0,2.37-10,20.13,20.13,0,0,0-2.32-10,15.2,15.2,0,0,0-6.09-6.12,17.51,17.51,0,0,0-16.33,0,14.71,14.71,0,0,0-5.95,6.12,20.79,20.79,0,0,0-2.24,10,21.29,21.29,0,0,0,2.19,10.11,14.57,14.57,0,0,0,5.87,6.13,16.46,16.46,0,0,0,8,2A17.19,17.19,0,0,0,1527.48,741.24Z"/><path d="M1565.07,707.32v28.9c0,2.39.5,4.08,1.52,5.06s2.77,1.48,5.28,1.48h6v6.89h-7.33q-6.81,0-10.2-3.13t-3.41-10.3v-28.9h-6.35v-6.71h6.35V688.26h8.15v12.35h12.79v6.71Z"/><path d="M1587.71,711.75a22.11,22.11,0,0,1,8.37-8.82,23,23,0,0,1,11.85-3.13,21.76,21.76,0,0,1,11.19,2.78,18.45,18.45,0,0,1,7.07,7v-8.95h8.23v49h-8.23v-9.13a19.16,19.16,0,0,1-7.21,7.11,21.52,21.52,0,0,1-11.14,2.82,22.21,22.21,0,0,1-11.81-3.22,22.61,22.61,0,0,1-8.32-9,28.09,28.09,0,0,1-3-13.24A27.54,27.54,0,0,1,1587.71,711.75Zm36.24,3.62a15.84,15.84,0,0,0-6-6.31,17.13,17.13,0,0,0-16.69,0,15.6,15.6,0,0,0-6,6.26A19.88,19.88,0,0,0,1593,725a20.32,20.32,0,0,0,2.24,9.8,15.85,15.85,0,0,0,6,6.35,16.24,16.24,0,0,0,8.32,2.19,16.47,16.47,0,0,0,8.37-2.19,15.7,15.7,0,0,0,6-6.35,20.23,20.23,0,0,0,2.24-9.71A20,20,0,0,0,1624,715.37Zm-4.11-28.63-19.07,10.2v-6.09l19.07-11.18Z"/></g></g></svg>